<?xml version="1.0" standalone="no"?>
<!DOCTYPE svg PUBLIC "-//W3C//DTD SVG 1.1//EN" "http://www.w3.org/Graphics/SVG/1.1/DTD/svg11.dtd">
<svg xmlns="http://www.w3.org/2000/svg">
<metadata>Copyright (C) 2015 by original authors @ fontello.com</metadata>
<defs>
<font id="fontello" horiz-adv-x="1000" >
<font-face font-family="fontello" font-weight="400" font-stretch="normal" units-per-em="1000" ascent="850" descent="-150" />
<missing-glyph horiz-adv-x="1000" />
<glyph glyph-name="logo-db" unicode="&#xe800;" d="m546 240q48-90-4-180-42-70-115-88t-151 26l-64 36-108-184-56 32 206 358q-68-10-134 28l-120 70 186 324 122-70q66-40 92-100l206 358 58-34-108-186 64-36q76-44 98-119t-20-143q-48-88-152-92z m44 302l-64 38-124-216q0-2-2-6l62-36q52-30 100-17t76 61 15 97-63 79z m-440-222q52-30 100-17t76 61 15 98-63 78l-64 38-128-222z m156-270q52-30 100-17t76 61 14 97-64 79l-62 36-4-4-124-216z" horiz-adv-x="726" />
<glyph glyph-name="glass" unicode="&#xe801;" d="m948 746q0-19-24-43l-353-353v-429h179q15 0 25-10t11-25-11-25-25-11h-500q-14 0-25 11t-11 25 11 25 25 10h179v429l-353 353q-24 24-24 43 0 13 10 21t21 9 24 3h786q13 0 24-3t21-9 10-21z" horiz-adv-x="1000" />
<glyph glyph-name="music" unicode="&#xe802;" d="m857 725v-625q0-28-19-50t-48-33-58-18-53-6-54 6-58 18-48 33-19 50 19 50 48 33 58 18 54 6q58 0 107-22v300l-429-132v-396q0-28-19-50t-48-33-58-18-53-6-54 6-58 18-48 33-19 50 19 50 48 34 58 17 54 6q58 0 107-21v539q0 17 10 32t28 19l464 143q7 3 16 3 22 0 38-16t15-38z" horiz-adv-x="857.1" />
<glyph glyph-name="search" unicode="&#xe803;" d="m643 386q0 103-74 176t-176 74-177-74-73-176 73-177 177-73 176 73 74 177z m286-465q0-29-22-50t-50-21q-30 0-50 21l-191 191q-100-69-223-69-80 0-153 31t-125 84-84 125-31 153 31 152 84 126 125 84 153 31 152-31 126-84 84-126 31-152q0-123-69-223l191-191q21-21 21-51z" horiz-adv-x="928.6" />
<glyph glyph-name="mail" unicode="&#xe804;" d="m929 11v428q-18-20-39-37-149-114-238-188-28-24-46-38t-48-27-57-13h-2q-26 0-57 13t-48 27-46 38q-88 74-238 188-21 17-39 37v-428q0-8 6-13t12-5h822q7 0 12 5t6 13z m0 586v14t-1 7-1 7-3 5-5 4-8 2h-822q-7 0-12-6t-6-12q0-94 82-159 108-85 224-177 4-2 20-16t25-21 25-18 28-15 24-5h2q11 0 24 5t28 15 25 18 25 21 20 16q116 92 224 177 30 24 56 65t26 73z m71 21v-607q0-37-26-63t-63-27h-822q-36 0-63 27t-26 63v607q0 37 26 63t63 26h822q37 0 63-26t26-63z" horiz-adv-x="1000" />
<glyph glyph-name="mail-alt" unicode="&#xe805;" d="m1000 454v-443q0-37-26-63t-63-27h-822q-36 0-63 27t-26 63v443q25-28 56-49 202-137 278-192 32-24 51-37t53-27 61-13h2q28 0 61 13t53 27 51 37q95 68 278 192 32 22 56 49z m0 164q0-44-27-84t-68-69q-210-146-262-181-5-4-23-17t-30-22-29-18-33-15-27-5h-2q-12 0-27 5t-33 15-29 18-30 22-23 17q-51 35-147 101t-114 80q-35 23-65 64t-31 77q0 43 23 72t66 29h822q36 0 62-26t27-63z" horiz-adv-x="1000" />
<glyph glyph-name="mail-squared" unicode="&#xe806;" d="m696 779q67 0 114-48t47-113v-536q0-66-47-113t-114-48h-535q-67 0-114 48t-47 113v536q0 66 47 113t114 48h535z m18-590v244q-17-20-35-31-19-12-74-48t-85-55q-55-38-91-38t-92 38q-26 18-79 52t-79 51q-7 5-19 16t-17 15v-244q0-22 16-38t37-15h465q22 0 38 15t15 38z m0 320q0 23-15 39t-38 16h-465q-22 0-37-15t-16-38q0-21 17-43t38-36q26-18 76-50t73-46q1-1 9-6t12-8 11-7 14-8 12-5 12-4 12-2 11 2 13 4 12 5 13 8 11 7 12 8 10 6l149 97q19 13 37 35t17 41z" horiz-adv-x="857.1" />
<glyph glyph-name="heart" unicode="&#xe807;" d="m500-79q-14 0-25 10l-348 336q-5 5-15 15t-31 36-38 55-30 67-13 77q0 123 71 192t196 70q34 0 70-12t67-33 54-38 42-38q20 20 42 38t54 38 67 33 70 12q125 0 196-70t71-192q0-123-128-251l-347-335q-10-10-25-10z" horiz-adv-x="1000" />
<glyph glyph-name="heart-empty" unicode="&#xe808;" d="m929 517q0 46-12 80t-31 55-46 33-52 18-55 4-62-14-62-36-48-40-34-34q-10-13-27-13t-27 13q-14 15-34 34t-48 40-62 36-62 14-55-4-52-18-46-33-31-55-12-80q0-93 105-198l324-312 324 312q105 105 105 198z m71 0q0-123-128-251l-347-335q-10-10-25-10t-25 10l-348 336q-5 5-15 15t-31 36-38 55-30 67-13 77q0 123 71 192t196 70q34 0 70-12t67-33 54-38 42-38q20 20 42 38t54 38 67 33 70 12q125 0 196-70t71-192z" horiz-adv-x="1000" />
<glyph glyph-name="star" unicode="&#xe809;" d="m929 489q0-12-15-27l-203-197 48-279q1-4 1-12 0-11-6-19t-17-9q-10 0-22 7l-251 132-250-132q-13-7-23-7-11 0-17 9t-6 19q0 4 1 12l48 279-203 197q-14 15-14 27 0 21 31 26l280 40 126 254q11 23 27 23t28-23l125-254 280-40q32-5 32-26z" horiz-adv-x="928.6" />
<glyph glyph-name="star-empty" unicode="&#xe80a;" d="m634 290l171 165-235 35-106 213-105-213-236-35 171-165-41-235 211 111 211-111z m295 199q0-12-15-27l-203-197 48-279q1-4 1-12 0-28-23-28-10 0-22 7l-251 132-250-132q-13-7-23-7-11 0-17 9t-6 19q0 4 1 12l48 279-203 197q-14 15-14 27 0 21 31 26l280 40 126 254q11 23 27 23t28-23l125-254 280-40q32-5 32-26z" horiz-adv-x="928.6" />
<glyph glyph-name="star-half" unicode="&#xe80b;" d="m464 832v-747l-250-132q-13-7-23-7-11 0-17 9t-6 19q0 4 1 12l48 279-203 197q-14 15-14 27 0 21 31 26l280 40 126 254q11 23 27 23z" horiz-adv-x="500" />
<glyph glyph-name="star-half-alt" unicode="&#xe80c;" d="m662 316l143 139-198 29-37 6-17 34-89 179v-537l33-17 178-94-34 198-7 37z m252 146l-202-197 47-279q3-19-3-29t-19-11q-9 0-22 7l-251 132-250-132q-13-7-23-7-12 0-19 11t-3 29l48 279-203 197q-18 18-13 33t30 20l280 40 126 254q11 23 27 23 16 0 28-23l125-254 280-40q25-4 30-20t-13-33z" horiz-adv-x="928.6" />
<glyph glyph-name="user" unicode="&#xe80d;" d="m786 66q0-67-41-106t-108-39h-488q-67 0-108 39t-41 106q0 30 2 58t8 61 15 60 24 55 34 45 48 30 62 11q5 0 24-12t41-27 60-27 75-12 74 12 61 27 41 27 24 12q34 0 62-11t48-30 34-45 24-55 15-60 8-61 2-58z m-179 498q0-88-63-151t-151-63-152 63-62 151 62 152 152 63 151-63 63-152z" horiz-adv-x="785.7" />
<glyph glyph-name="users" unicode="&#xe80e;" d="m331 350q-90-3-148-71h-75q-45 0-77 22t-31 66q0 197 69 197 4 0 25-11t54-24 66-12q38 0 75 13-3-21-3-37 0-78 45-143z m598-356q0-66-41-105t-108-39h-488q-68 0-108 39t-41 105q0 30 2 58t8 61 14 61 24 54 35 45 48 30 62 11q6 0 24-12t41-26 59-27 76-12 75 12 60 27 41 26 23 12q35 0 63-11t47-30 35-45 24-54 15-61 8-61 2-58z m-572 713q0-59-42-101t-101-42-101 42-42 101 42 101 101 42 101-42 42-101z m393-214q0-89-63-152t-151-62-152 62-63 152 63 151 152 63 151-63 63-151z m321-126q0-43-31-66t-77-22h-75q-57 68-147 71 45 65 45 143 0 16-3 37 37-13 74-13 33 0 67 12t54 24 24 11q69 0 69-197z m-71 340q0-59-42-101t-101-42-101 42-42 101 42 101 101 42 101-42 42-101z" horiz-adv-x="1071.4" />
<glyph glyph-name="male" unicode="&#xe80f;" d="m571 457v-232q0-22-15-38t-38-16-38 16-16 38v196h-35v-509q0-25-19-44t-44-18-44 18-18 44v259h-36v-259q0-25-19-44t-44-18-44 18-18 44v509h-36v-196q0-22-15-38t-38-16-38 16-16 38v232q0 45 31 76t76 31h357q45 0 76-31t31-76z m-160 250q0-52-37-88t-88-37-89 37-36 88 36 89 89 36 88-36 37-89z" horiz-adv-x="571.4" />
<glyph glyph-name="female" unicode="&#xe810;" d="m714 261q0-23-15-38t-38-16q-29 0-45 24l-127 190h-25v-73l138-230q5-8 5-18 0-14-10-25t-26-11h-107v-152q0-25-18-44t-44-18h-89q-26 0-45 18t-18 44v152h-107q-15 0-25 11t-11 25q0 10 5 18l138 230v73h-25l-127-190q-16-24-44-24-23 0-38 16t-16 38q0 16 9 29l143 215q41 59 98 59h214q58 0 99-59l142-215q9-13 9-29z m-232 446q0-52-36-88t-89-37-88 37-37 88 37 89 88 36 89-36 36-89z" horiz-adv-x="714.3" />
<glyph glyph-name="child" unicode="&#xe811;" d="m663 544l-163-163v-460q0-25-18-44t-44-18-45 18-18 44v215h-36v-215q0-25-18-44t-44-18-44 18-19 44v460l-163 163q-15 16-15 38t15 38 38 16 38-16l127-127h206l127 127q16 16 38 16t38-16 16-38-16-38z m-181 92q0-52-36-89t-89-36-88 36-37 89 37 88 88 37 89-37 36-88z" horiz-adv-x="714.3" />
<glyph glyph-name="video" unicode="&#xe812;" d="m214-43v72q0 14-10 25t-25 10h-72q-14 0-25-10t-11-25v-72q0-14 11-25t25-11h72q14 0 25 11t10 25z m0 214v72q0 14-10 25t-25 11h-72q-14 0-25-11t-11-25v-72q0-14 11-25t25-10h72q14 0 25 10t10 25z m0 215v71q0 15-10 25t-25 11h-72q-14 0-25-11t-11-25v-71q0-15 11-25t25-11h72q14 0 25 11t10 25z m572-429v286q0 14-11 25t-25 11h-429q-14 0-25-11t-10-25v-286q0-14 10-25t25-11h429q15 0 25 11t11 25z m-572 643v71q0 15-10 26t-25 10h-72q-14 0-25-10t-11-26v-71q0-15 11-25t25-11h72q14 0 25 11t10 25z m786-643v72q0 14-11 25t-25 10h-71q-15 0-25-10t-11-25v-72q0-14 11-25t25-11h71q15 0 25 11t11 25z m-214 429v285q0 15-11 26t-25 10h-429q-14 0-25-10t-10-26v-285q0-15 10-25t25-11h429q15 0 25 11t11 25z m214-215v72q0 14-11 25t-25 11h-71q-15 0-25-11t-11-25v-72q0-14 11-25t25-10h71q15 0 25 10t11 25z m0 215v71q0 15-11 25t-25 11h-71q-15 0-25-11t-11-25v-71q0-15 11-25t25-11h71q15 0 25 11t11 25z m0 214v71q0 15-11 26t-25 10h-71q-15 0-25-10t-11-26v-71q0-15 11-25t25-11h71q15 0 25 11t11 25z m71 89v-750q0-37-26-63t-63-26h-893q-36 0-63 26t-26 63v750q0 37 26 63t63 27h893q37 0 63-27t26-63z" horiz-adv-x="1071.4" />
<glyph glyph-name="videocam" unicode="&#xe813;" d="m1000 654v-608q0-23-22-32-7-3-14-3-15 0-25 10l-225 225v-92q0-67-47-114t-113-47h-393q-67 0-114 47t-47 114v392q0 67 47 114t114 47h393q66 0 113-47t47-114v-92l225 225q10 10 25 10 7 0 14-3 22-9 22-32z" horiz-adv-x="1000" />
<glyph glyph-name="picture" unicode="&#xe814;" d="m357 529q0-45-31-76t-76-32-76 32-31 76 31 75 76 32 76-32 31-75z m572-215v-250h-786v107l178 179 90-89 285 285z m53 393h-893q-7 0-12-5t-6-13v-678q0-8 6-13t12-5h893q7 0 13 5t5 13v678q0 7-5 13t-13 5z m89-18v-678q0-37-26-63t-63-27h-893q-36 0-63 27t-26 63v678q0 37 26 63t63 27h893q37 0 63-27t26-63z" horiz-adv-x="1071.4" />
<glyph glyph-name="camera" unicode="&#xe815;" d="m536 475q66 0 113-47t47-114-47-113-113-47-114 47-47 113 47 114 114 47z m393 232q59 0 101-42t41-101v-500q0-59-41-101t-101-42h-786q-59 0-101 42t-42 101v500q0 59 42 101t101 42h125l28 76q11 27 39 47t58 20h286q29 0 57-20t39-47l29-76h125z m-393-643q103 0 176 74t74 176-74 177-176 73-177-73-73-177 73-176 177-74z" horiz-adv-x="1071.4" />
<glyph glyph-name="camera-alt" unicode="&#xe816;" d="m518 386q0 8-5 13t-13 5q-37 0-63-27t-26-63q0-8 5-13t13-5 12 5 5 13q0 23 16 38t38 16q8 0 13 5t5 13z m125-73q0-59-42-101t-101-42-101 42-42 101 42 101 101 42 101-42 42-101z m-572-320h858v71h-858v-71z m643 320q0 89-62 152t-152 62-151-62-63-152 63-151 151-63 152 63 62 151z m-571 358h214v72h-214v-72z m-72-107h858v143h-462l-36-71h-360v-72z m929 143v-714q0-30-21-51t-50-21h-858q-29 0-50 21t-21 51v714q0 30 21 51t50 21h858q29 0 50-21t21-51z" horiz-adv-x="1000" />
<glyph glyph-name="th-large" unicode="&#xe817;" d="m429 279v-215q0-29-22-50t-50-21h-286q-29 0-50 21t-21 50v215q0 29 21 50t50 21h286q29 0 50-21t22-50z m0 428v-214q0-29-22-50t-50-22h-286q-29 0-50 22t-21 50v214q0 29 21 50t50 22h286q29 0 50-22t22-50z m500-428v-215q0-29-22-50t-50-21h-286q-29 0-50 21t-21 50v215q0 29 21 50t50 21h286q29 0 50-21t22-50z m0 428v-214q0-29-22-50t-50-22h-286q-29 0-50 22t-21 50v214q0 29 21 50t50 22h286q29 0 50-22t22-50z" horiz-adv-x="928.6" />
<glyph glyph-name="th" unicode="&#xe818;" d="m286 154v-108q0-22-16-37t-38-16h-178q-23 0-38 16t-16 37v108q0 22 16 38t38 15h178q22 0 38-15t16-38z m0 285v-107q0-22-16-38t-38-15h-178q-23 0-38 15t-16 38v107q0 23 16 38t38 16h178q22 0 38-16t16-38z m357-285v-108q0-22-16-37t-38-16h-178q-23 0-38 16t-16 37v108q0 22 16 38t38 15h178q23 0 38-15t16-38z m-357 571v-107q0-22-16-38t-38-16h-178q-23 0-38 16t-16 38v107q0 22 16 38t38 16h178q22 0 38-16t16-38z m357-286v-107q0-22-16-38t-38-15h-178q-23 0-38 15t-16 38v107q0 23 16 38t38 16h178q23 0 38-16t16-38z m357-285v-108q0-22-16-37t-38-16h-178q-22 0-38 16t-16 37v108q0 22 16 38t38 15h178q23 0 38-15t16-38z m-357 571v-107q0-22-16-38t-38-16h-178q-23 0-38 16t-16 38v107q0 22 16 38t38 16h178q23 0 38-16t16-38z m357-286v-107q0-22-16-38t-38-15h-178q-22 0-38 15t-16 38v107q0 23 16 38t38 16h178q23 0 38-16t16-38z m0 286v-107q0-22-16-38t-38-16h-178q-22 0-38 16t-16 38v107q0 22 16 38t38 16h178q23 0 38-16t16-38z" horiz-adv-x="1000" />
<glyph glyph-name="th-list" unicode="&#xe819;" d="m286 154v-108q0-22-16-37t-38-16h-178q-23 0-38 16t-16 37v108q0 22 16 38t38 15h178q22 0 38-15t16-38z m0 285v-107q0-22-16-38t-38-15h-178q-23 0-38 15t-16 38v107q0 23 16 38t38 16h178q22 0 38-16t16-38z m714-285v-108q0-22-16-37t-38-16h-535q-23 0-38 16t-16 37v108q0 22 16 38t38 15h535q23 0 38-15t16-38z m-714 571v-107q0-22-16-38t-38-16h-178q-23 0-38 16t-16 38v107q0 22 16 38t38 16h178q22 0 38-16t16-38z m714-286v-107q0-22-16-38t-38-15h-535q-23 0-38 15t-16 38v107q0 23 16 38t38 16h535q23 0 38-16t16-38z m0 286v-107q0-22-16-38t-38-16h-535q-23 0-38 16t-16 38v107q0 22 16 38t38 16h535q23 0 38-16t16-38z" horiz-adv-x="1000" />
<glyph glyph-name="ok" unicode="&#xe81a;" d="m932 534q0-22-15-38l-404-404-76-76q-16-15-38-15t-38 15l-76 76-202 202q-15 16-15 38t15 38l76 76q16 16 38 16t38-16l164-165 366 367q16 16 38 16t38-16l76-76q15-16 15-38z" horiz-adv-x="1000" />
<glyph glyph-name="ok-circled" unicode="&#xe81b;" d="m717 440q0 16-11 26l-50 50q-11 11-25 11t-26-11l-227-227-126 126q-11 11-25 11t-26-11l-50-50q-10-10-10-26 0-15 10-25l202-202q10-10 25-10 15 0 25 10l303 303q11 10 11 25z m140-90q0-117-57-215t-156-156-215-58-216 58-155 156-58 215 58 215 155 156 216 58 215-58 156-156 57-215z" horiz-adv-x="857.1" />
<glyph glyph-name="ok-circled2" unicode="&#xe81c;" d="m653 396l-235-235q-11-11-25-11t-25 11l-164 164q-11 11-11 25t11 25l57 57q10 11 25 11t25-11l82-82 153 153q11 11 25 11t26-11l56-56q11-11 11-26t-11-25z m79-46q0 83-41 152t-110 111-152 41-153-41-110-111-41-152 41-152 110-111 153-41 152 41 110 111 41 152z m125 0q0-117-57-215t-156-156-215-58-216 58-155 156-58 215 58 215 155 156 216 58 215-58 156-156 57-215z" horiz-adv-x="857.1" />
<glyph glyph-name="ok-squared" unicode="&#xe81d;" d="m382 125l343 343q10 10 10 25t-10 25l-57 57q-11 10-25 10t-25-10l-261-261-118 118q-10 11-25 11t-25-11l-57-57q-10-11-10-25t10-25l200-200q11-11 25-11t25 11z m475 493v-536q0-66-47-113t-114-48h-535q-67 0-114 48t-47 113v536q0 66 47 113t114 48h535q67 0 114-48t47-113z" horiz-adv-x="857.1" />
<glyph glyph-name="cancel" unicode="&#xe81e;" d="m724 112q0-22-15-38l-76-76q-16-15-38-15t-38 15l-164 165-164-165q-16-15-38-15t-38 15l-76 76q-16 16-16 38t16 38l164 164-164 164q-16 16-16 38t16 38l76 76q16 16 38 16t38-16l164-164 164 164q16 16 38 16t38-16l76-76q15-15 15-38t-15-38l-164-164 164-164q15-15 15-38z" horiz-adv-x="785.7" />
<glyph glyph-name="cancel-circled" unicode="&#xe81f;" d="m641 224q0 14-10 25l-101 101 101 101q10 11 10 25 0 15-10 26l-51 50q-10 11-25 11-15 0-25-11l-101-101-101 101q-11 11-26 11-15 0-25-11l-50-50q-11-11-11-26 0-14 11-25l101-101-101-101q-11-11-11-25 0-15 11-26l50-50q10-11 25-11 15 0 26 11l101 101 101-101q10-11 25-11 15 0 25 11l51 50q10 11 10 26z m216 126q0-117-57-215t-156-156-215-58-216 58-155 156-58 215 58 215 155 156 216 58 215-58 156-156 57-215z" horiz-adv-x="857.1" />
<glyph glyph-name="cancel-circled2" unicode="&#xe820;" d="m612 248l-81-82q-6-5-13-5t-13 5l-76 77-77-77q-5-5-13-5t-13 5l-81 82q-6 5-6 13t6 13l76 76-76 76q-6 6-6 13t6 13l81 82q6 5 13 5t13-5l77-77 76 77q6 5 13 5t13-5l81-82q6-5 6-13t-6-13l-76-76 76-76q6-6 6-13t-6-13z m120 102q0 83-41 152t-110 111-152 41-153-41-110-111-41-152 41-152 110-111 153-41 152 41 110 111 41 152z m125 0q0-117-57-215t-156-156-215-58-216 58-155 156-58 215 58 215 155 156 216 58 215-58 156-156 57-215z" horiz-adv-x="857.1" />
<glyph glyph-name="plus" unicode="&#xe821;" d="m786 439v-107q0-22-16-38t-38-15h-232v-233q0-22-16-37t-38-16h-107q-22 0-38 16t-15 37v233h-232q-23 0-38 15t-16 38v107q0 23 16 38t38 16h232v232q0 22 15 38t38 16h107q23 0 38-16t16-38v-232h232q22 0 38-16t16-38z" horiz-adv-x="785.7" />
<glyph glyph-name="plus-circled" unicode="&#xe822;" d="m679 314v72q0 14-11 25t-25 10h-143v143q0 15-11 25t-25 11h-71q-15 0-25-11t-11-25v-143h-143q-14 0-25-10t-10-25v-72q0-14 10-25t25-11h143v-142q0-15 11-25t25-11h71q15 0 25 11t11 25v142h143q14 0 25 11t11 25z m178 36q0-117-57-215t-156-156-215-58-216 58-155 156-58 215 58 215 155 156 216 58 215-58 156-156 57-215z" horiz-adv-x="857.1" />
<glyph glyph-name="plus-squared" unicode="&#xe823;" d="m714 314v72q0 14-10 25t-25 10h-179v179q0 15-11 25t-25 11h-71q-15 0-25-11t-11-25v-179h-178q-15 0-26-10t-10-25v-72q0-14 10-25t26-10h178v-179q0-14 11-25t25-11h71q15 0 25 11t11 25v179h179q14 0 25 10t10 25z m143 304v-536q0-66-47-113t-114-48h-535q-67 0-114 48t-47 113v536q0 66 47 113t114 48h535q67 0 114-48t47-113z" horiz-adv-x="857.1" />
<glyph glyph-name="plus-squared-alt" unicode="&#xe824;" d="m643 404v-36q0-8-5-13t-13-5h-196v-196q0-8-5-13t-13-5h-36q-8 0-13 5t-5 13v196h-196q-8 0-13 5t-5 13v36q0 7 5 12t13 5h196v197q0 8 5 13t13 5h36q8 0 13-5t5-13v-197h196q8 0 13-5t5-13z m71-250v464q0 37-26 63t-63 26h-464q-37 0-63-26t-27-63v-464q0-37 27-64t63-26h464q37 0 63 26t26 64z m72 464v-464q0-67-47-114t-114-47h-464q-67 0-114 47t-47 114v464q0 66 47 113t114 48h464q66 0 114-48t47-113z" horiz-adv-x="785.7" />
<glyph glyph-name="minus" unicode="&#xe825;" d="m786 439v-107q0-22-16-38t-38-15h-678q-23 0-38 15t-16 38v107q0 23 16 38t38 16h678q22 0 38-16t16-38z" horiz-adv-x="785.7" />
<glyph glyph-name="minus-circled" unicode="&#xe826;" d="m679 314v72q0 14-11 25t-25 10h-429q-14 0-25-10t-10-25v-72q0-14 10-25t25-10h429q14 0 25 10t11 25z m178 36q0-117-57-215t-156-156-215-58-216 58-155 156-58 215 58 215 155 156 216 58 215-58 156-156 57-215z" horiz-adv-x="857.1" />
<glyph glyph-name="minus-squared" unicode="&#xe827;" d="m714 314v72q0 14-10 25t-25 10h-500q-15 0-26-10t-10-25v-72q0-14 10-25t26-10h500q14 0 25 10t10 25z m143 304v-536q0-66-47-113t-114-48h-535q-67 0-114 48t-47 113v536q0 66 47 113t114 48h535q67 0 114-48t47-113z" horiz-adv-x="857.1" />
<glyph glyph-name="minus-squared-alt" unicode="&#xe828;" d="m643 404v-36q0-8-5-13t-13-5h-464q-8 0-13 5t-5 13v36q0 7 5 12t13 5h464q8 0 13-5t5-12z m71-250v464q0 37-26 63t-63 26h-464q-37 0-63-26t-27-63v-464q0-37 27-64t63-26h464q37 0 63 26t26 64z m72 464v-464q0-67-47-114t-114-47h-464q-67 0-114 47t-47 114v464q0 66 47 113t114 48h464q66 0 114-48t47-113z" horiz-adv-x="785.7" />
<glyph glyph-name="help" unicode="&#xe829;" d="m393 149v-134q0-9-7-16t-15-6h-134q-9 0-16 6t-7 16v134q0 9 7 16t16 6h134q8 0 15-6t7-16z m176 335q0-30-8-56t-20-43-31-33-32-25-34-19q-23-13-38-37t-15-37q0-10-7-18t-16-9h-134q-8 0-14 10t-6 21v26q0 46 37 87t79 60q33 15 47 32t14 42q0 23-26 41t-60 18q-36 0-60-16-20-14-60-64-7-9-17-9-7 0-14 4l-91 70q-8 6-9 14t3 16q89 148 259 148 45 0 90-17t81-46 59-72 23-88z" horiz-adv-x="571.4" />
<glyph glyph-name="help-circled" unicode="&#xe82a;" d="m500 82v107q0 8-5 13t-13 5h-107q-8 0-13-5t-5-13v-107q0-8 5-13t13-5h107q8 0 13 5t5 13z m143 375q0 49-31 91t-77 65-95 23q-136 0-207-119-9-14 4-24l74-55q4-4 10-4 9 0 14 7 30 38 48 51 19 14 48 14 27 0 48-15t21-33q0-21-11-34t-38-25q-35-16-65-48t-29-70v-20q0-8 5-13t13-5h107q8 0 13 5t5 13q0 10 12 27t30 28q18 10 28 16t25 19 25 27 16 34 7 45z m214-107q0-117-57-215t-156-156-215-58-216 58-155 156-58 215 58 215 155 156 216 58 215-58 156-156 57-215z" horiz-adv-x="857.1" />
<glyph glyph-name="info-circled" unicode="&#xe82b;" d="m571 82v89q0 8-5 13t-12 5h-54v286q0 8-5 13t-13 5h-178q-8 0-13-5t-5-13v-89q0-8 5-13t13-5h53v-179h-53q-8 0-13-5t-5-13v-89q0-8 5-13t13-5h250q7 0 12 5t5 13z m-71 500v89q0 8-5 13t-13 5h-107q-8 0-13-5t-5-13v-89q0-8 5-13t13-5h107q8 0 13 5t5 13z m357-232q0-117-57-215t-156-156-215-58-216 58-155 156-58 215 58 215 155 156 216 58 215-58 156-156 57-215z" horiz-adv-x="857.1" />
<glyph glyph-name="info" unicode="&#xe82c;" d="m357 100v-71q0-15-10-25t-26-11h-285q-15 0-25 11t-11 25v71q0 15 11 25t25 11h35v214h-35q-15 0-25 11t-11 25v71q0 15 11 25t25 11h214q15 0 25-11t11-25v-321h35q15 0 26-11t10-25z m-71 643v-107q0-15-11-25t-25-11h-143q-14 0-25 11t-11 25v107q0 14 11 25t25 11h143q15 0 25-11t11-25z" horiz-adv-x="357.1" />
<glyph glyph-name="home" unicode="&#xe82d;" d="m786 296v-267q0-15-11-26t-25-10h-214v214h-143v-214h-214q-15 0-25 10t-11 26v267q0 1 0 2t0 2l321 264 321-264q1-1 1-4z m124 39l-34-41q-5-5-12-6h-2q-7 0-12 3l-386 322-386-322q-7-4-13-4-7 2-12 7l-35 41q-4 5-3 13t6 12l401 334q18 15 42 15t43-15l136-114v109q0 8 5 13t13 5h107q8 0 13-5t5-13v-227l122-102q5-5 6-12t-4-13z" horiz-adv-x="928.6" />
<glyph glyph-name="link" unicode="&#xe82e;" d="m812 171q0 23-15 38l-116 116q-16 16-38 16-24 0-40-18 1-1 10-10t12-12 9-11 7-14 2-15q0-23-16-38t-38-16q-8 0-15 2t-14 7-11 9-12 12-10 10q-19-17-19-40 0-23 16-38l115-116q15-15 38-15 22 0 38 15l82 81q15 16 15 37z m-392 394q0 22-15 38l-115 115q-16 16-38 16-22 0-38-15l-82-82q-16-15-16-37 0-22 16-38l116-116q15-15 38-15 23 0 40 17-2 2-11 11t-12 12-8 10-7 14-2 16q0 22 15 38t38 15q9 0 16-2t14-7 10-8 12-12 11-11q18 17 18 41z m500-394q0-67-48-113l-82-81q-46-47-113-47-68 0-114 48l-115 115q-46 47-46 114 0 68 49 116l-49 49q-48-49-116-49-67 0-114 47l-116 116q-47 47-47 114t47 113l82 82q47 46 114 46 67 0 114-47l114-116q47-46 47-113 0-69-49-117l49-49q48 49 116 49 67 0 114-47l116-116q47-47 47-114z" horiz-adv-x="928.6" />
<glyph glyph-name="unlink" unicode="&#xe82f;" d="m245 141l-143-143q-5-5-13-5-6 0-13 5-5 5-5 13t5 13l143 142q6 5 13 5t13-5q5-5 5-12t-5-13z m94-23v-179q0-8-5-13t-13-5-12 5-5 13v179q0 8 5 13t12 5 13-5 5-13z m-125 125q0-8-5-13t-13-5h-178q-8 0-13 5t-5 13 5 13 13 5h178q8 0 13-5t5-13z m706-72q0-67-48-113l-82-81q-46-47-113-47-68 0-114 48l-186 187q-12 11-24 31l134 10 152-153q15-15 38-15t38 15l82 81q15 16 15 37 0 23-15 38l-153 154 10 133q20-12 31-23l188-188q47-48 47-114z m-345 404l-133-10-152 153q-16 16-38 16-22 0-38-15l-82-82q-16-15-16-37 0-22 16-38l153-153-10-134q-20 12-32 24l-187 187q-47 48-47 114 0 67 47 113l82 82q47 46 114 46 67 0 114-47l186-187q12-12 23-32z m354-46q0-8-5-13t-13-5h-179q-8 0-13 5t-5 13 5 12 13 5h179q8 0 13-5t5-12z m-304 303v-178q0-8-5-13t-13-5-13 5-5 13v178q0 8 5 13t13 5 13-5 5-13z m227-84l-143-143q-6-5-13-5t-12 5q-5 6-5 13t5 13l142 142q6 5 13 5t13-5q5-5 5-12t-5-13z" horiz-adv-x="928.6" />
<glyph glyph-name="link-ext" unicode="&#xe830;" d="m786 332v-178q0-67-47-114t-114-47h-464q-67 0-114 47t-47 114v464q0 66 47 113t114 48h393q7 0 12-5t5-13v-36q0-8-5-13t-12-5h-393q-37 0-63-26t-27-63v-464q0-37 27-63t63-27h464q37 0 63 27t26 63v178q0 8 5 13t13 5h36q8 0 13-5t5-13z m214 482v-285q0-15-11-26t-25-10-25 10l-98 99-364-364q-5-6-13-6t-13 6l-63 63q-6 6-6 13t6 13l364 364-99 98q-10 11-10 25t10 25 26 11h285q15 0 25-11t11-25z" horiz-adv-x="1000" />
<glyph glyph-name="link-ext-alt" unicode="&#xe831;" d="m714 332v268q0 15-10 25t-25 11h-268q-24 0-33-22-10-23 8-39l80-80-298-298q-11-11-11-26t11-25l57-57q11-10 25-10t25 10l298 298 80-80q11-11 26-11 6 0 14 3 21 10 21 33z m143 286v-536q0-66-47-113t-114-48h-535q-67 0-114 48t-47 113v536q0 66 47 113t114 48h535q67 0 114-48t47-113z" horiz-adv-x="857.1" />
<glyph glyph-name="attach" unicode="&#xe832;" d="m783 77q0-65-44-109t-109-44q-75 0-131 55l-434 434q-63 64-63 151 0 88 62 150t150 62q88 0 152-63l338-338q5-5 5-12 0-9-17-26t-26-17q-7 0-13 5l-338 339q-44 43-101 43-59 0-100-42t-40-101q0-58 42-101l433-433q35-35 81-35 36 0 59 23t24 59q0 46-36 81l-324 324q-14 14-33 14-16 0-27-11t-11-27q0-18 14-33l229-228q6-6 6-13 0-9-18-26t-26-17q-7 0-12 5l-229 229q-35 34-35 83 0 46 32 78t77 32q49 0 83-36l325-324q55-54 55-131z" horiz-adv-x="785.7" />
<glyph glyph-name="lock" unicode="&#xe833;" d="m179 421h285v108q0 59-42 101t-101 41-101-41-41-101v-108z m464-53v-322q0-22-16-37t-38-16h-535q-23 0-38 16t-16 37v322q0 22 16 38t38 15h17v108q0 102 74 176t176 74 177-74 73-176v-108h18q23 0 38-15t16-38z" horiz-adv-x="642.9" />
<glyph glyph-name="lock-open" unicode="&#xe834;" d="m929 529v-143q0-15-11-25t-25-11h-36q-14 0-25 11t-11 25v143q0 59-41 101t-101 41-101-41-42-101v-108h53q23 0 38-15t16-38v-322q0-22-16-37t-38-16h-535q-23 0-38 16t-16 37v322q0 22 16 38t38 15h375v108q0 103 73 176t177 74 176-74 74-176z" horiz-adv-x="928.6" />
<glyph glyph-name="lock-open-alt" unicode="&#xe835;" d="m589 421q23 0 38-15t16-38v-322q0-22-16-37t-38-16h-535q-23 0-38 16t-16 37v322q0 22 16 38t38 15h17v179q0 103 74 177t176 73 177-73 73-177q0-15-10-25t-25-11h-36q-14 0-25 11t-11 25q0 59-42 101t-101 42-101-42-41-101v-179h410z" horiz-adv-x="642.9" />
<glyph glyph-name="pin" unicode="&#xe836;" d="m268 368v250q0 8-5 13t-13 5-13-5-5-13v-250q0-8 5-13t13-5 13 5 5 13z m375-197q0-14-11-25t-25-10h-239l-29-270q-1-7-6-11t-11-5h-1q-15 0-17 15l-43 271h-225q-15 0-25 10t-11 25q0 69 44 124t99 55v286q-29 0-50 21t-22 50 22 50 50 22h357q29 0 50-22t21-50-21-50-50-21v-286q55 0 99-55t44-124z" horiz-adv-x="642.9" />
<glyph glyph-name="eye" unicode="&#xe837;" d="m929 314q-85 132-213 197 34-58 34-125 0-104-73-177t-177-73-177 73-73 177q0 67 34 125-128-65-213-197 75-114 187-182t242-68 242 68 187 182z m-402 215q0 11-8 19t-19 7q-70 0-120-50t-50-119q0-12 8-19t19-8 19 8 8 19q0 48 34 82t82 34q11 0 19 8t8 19z m473-215q0-19-11-38-78-129-210-206t-279-77-279 77-210 206q-11 19-11 38t11 39q78 128 210 205t279 78 279-78 210-205q11-20 11-39z" horiz-adv-x="1000" />
<glyph glyph-name="eye-off" unicode="&#xe838;" d="m310 105l43 79q-48 35-76 88t-27 114q0 67 34 125-128-65-213-197 94-144 239-209z m217 424q0 11-8 19t-19 7q-70 0-120-50t-50-119q0-12 8-19t19-8 19 8 8 19q0 48 34 82t82 34q11 0 19 8t8 19z m202 106q0-4 0-5-59-105-176-316t-176-316l-28-50q-5-9-15-9-7 0-75 39-9 6-9 16 0 7 25 49-80 36-147 96t-117 137q-11 17-11 38t11 39q86 131 212 207t277 76q50 0 100-10l31 54q5 9 15 9 3 0 10-3t18-9 18-10 18-10 10-7q9-5 9-15z m21-249q0-78-44-142t-117-92l157 281q4-26 4-47z m250-72q0-19-11-38-22-36-61-81-84-96-194-149t-234-53l41 74q119 10 219 76t169 171q-65 100-158 164l35 63q53-36 102-86t81-102q11-19 11-39z" horiz-adv-x="1000" />
<glyph glyph-name="tag" unicode="&#xe839;" d="m250 600q0 30-21 51t-50 20-51-20-21-51 21-50 51-21 50 21 21 50z m595-321q0-30-20-51l-274-274q-22-21-51-21-30 0-50 21l-399 399q-21 21-36 57t-15 65v232q0 29 21 50t50 22h233q29 0 65-15t57-36l399-399q20-21 20-50z" horiz-adv-x="857.1" />
<glyph glyph-name="tags" unicode="&#xe83a;" d="m250 600q0 30-21 51t-50 20-51-20-21-51 21-50 51-21 50 21 21 50z m595-321q0-30-20-51l-274-274q-22-21-51-21-30 0-50 21l-399 399q-21 21-36 57t-15 65v232q0 29 21 50t50 22h233q29 0 65-15t57-36l399-399q20-21 20-50z m215 0q0-30-21-51l-274-274q-22-21-51-21-20 0-33 8t-29 25l262 262q21 21 21 51 0 29-21 50l-399 399q-21 21-57 36t-65 15h125q29 0 65-15t57-36l399-399q21-21 21-50z" horiz-adv-x="1071.4" />
<glyph glyph-name="bookmark" unicode="&#xe83b;" d="m650 779q12 0 24-5 19-8 29-23t11-35v-719q0-19-11-35t-29-23q-10-4-24-4-27 0-47 18l-246 236-246-236q-20-19-46-19-13 0-25 5-18 7-29 23t-11 35v719q0 19 11 35t29 23q12 5 25 5h585z" horiz-adv-x="714.3" />
<glyph glyph-name="bookmark-empty" unicode="&#xe83c;" d="m643 707h-572v-693l237 227 49 47 50-47 236-227v693z m7 72q12 0 24-5 19-8 29-23t11-35v-719q0-19-11-35t-29-23q-10-4-24-4-27 0-47 18l-246 236-246-236q-20-19-46-19-13 0-25 5-18 7-29 23t-11 35v719q0 19 11 35t29 23q12 5 25 5h585z" horiz-adv-x="714.3" />
<glyph glyph-name="flag" unicode="&#xe83d;" d="m179 707q0-40-36-61v-707q0-7-5-12t-13-6h-36q-7 0-12 6t-6 12v707q-35 21-35 61 0 30 21 51t50 21 51-21 21-51z m821-36v-425q0-14-7-22t-22-15q-120-65-206-65-34 0-69 12t-60 27-65 27-79 12q-107 0-259-81-10-5-19-5-14 0-25 10t-10 25v414q0 18 17 31 12 8 44 24 132 67 235 67 60 0 112-16t122-49q21-11 49-11 30 0 65 12t62 26 49 26 30 12q15 0 25-10t11-26z" horiz-adv-x="1000" />
<glyph glyph-name="flag-empty" unicode="&#xe83e;" d="m929 267v344q-95-51-171-51-46 0-81 18-56 27-103 42t-99 16q-97 0-225-71v-334q137 63 242 63 30 0 57-5t55-14 43-17 46-22l16-8q24-13 56-13 67 0 164 52z m-750 440q0-19-10-36t-26-25v-707q0-8-5-13t-13-5h-36q-7 0-13 5t-5 13v707q-16 9-25 25t-10 36q0 30 21 51t50 20 51-20 21-51z m821-36v-425q0-22-20-32-5-3-9-5-122-65-206-65-49 0-88 20l-16 7q-35 19-55 27t-51 16-63 8q-57 0-132-24t-127-57q-9-5-19-5-9 0-18 4-17 11-17 31v414q0 20 17 31 19 12 44 24t63 29 85 28 87 10q62 0 117-17t116-48q21-11 50-11 68 0 173 63 12 6 17 9 17 9 35-1 17-11 17-31z" horiz-adv-x="1000" />
<glyph glyph-name="flag-checkered" unicode="&#xe83f;" d="m464 292v107q-101-9-214-65v-103q114 53 214 61z m0 233v110q-96-4-214-70v-106q120 62 214 66z m465-258v103q-132-65-215-40v125q-11 3-21 8-3 2-19 10t-19 9-18 9-19 8-18 8-20 7-20 4-22 4-22 3-24 1q-13 0-28-2v-124h11q57 0 107-16t111-46q10-5 21-8v-105q24-9 51-9 67 0 164 51z m0 238v106q-95-51-171-51-25 0-44 4v-109q83-24 215 50z m-750 202q0-19-10-36t-26-25v-707q0-8-5-13t-13-5h-36q-7 0-13 5t-5 13v707q-16 9-25 25t-10 36q0 30 21 51t50 20 51-20 21-51z m821-36v-425q0-22-20-32-5-3-9-5-122-65-206-65-49 0-88 20l-16 7q-35 19-55 27t-51 16-63 8q-57 0-132-24t-127-57q-9-5-19-5-9 0-18 4-17 11-17 31v414q0 20 17 31 19 12 44 24t63 29 85 28 87 10q62 0 117-17t116-48q21-11 50-11 68 0 173 63 12 6 17 9 17 9 35-1 17-11 17-31z" horiz-adv-x="1000" />
<glyph glyph-name="thumbs-up" unicode="&#xe840;" d="m143 100q0 15-11 25t-25 11-25-11-11-25 11-25 25-11 25 11 11 25z m643 321q0 29-22 50t-50 22h-196q0 32 27 89t26 89q0 55-17 81t-72 27q-14-15-21-48t-17-70-33-61q-13-13-43-51-2-3-13-17t-18-22-19-24-22-25-22-19-22-16-20-5h-18v-357h18q7 0 18-1t18-4 21-6 20-7 20-7 16-5q118-41 191-41h67q107 0 107 93 0 15-2 31 16 9 26 30t10 41-10 38q29 28 29 67 0 13-5 31t-14 26q18 1 30 26t12 45z m71 1q0-50-27-91 5-18 5-38 0-43-21-81 1-12 1-24 0-56-33-99 0-78-48-123t-126-45h-72q-54 0-106 13t-121 36q-65 23-77 23h-161q-29 0-50 21t-21 50v357q0 30 21 51t50 21h153q20 13 77 86 32 42 60 72 13 14 19 47t17 71 35 60q22 21 50 21 47 0 84-18t57-57 20-104q0-51-27-107h98q58 0 101-42t42-100z" horiz-adv-x="857.1" />
<glyph glyph-name="thumbs-down" unicode="&#xe841;" d="m143 600q0 15-11 25t-25 11-25-11-11-25 11-25 25-11 25 11 11 25z m643-321q0 19-12 45t-30 26q8 10 14 27t5 30q0 39-29 67 10 18 10 38t-10 41-26 30q2 16 2 31 0 47-27 70t-76 23h-71q-73 0-191-41-3-1-16-6t-20-7-20-6-21-6-18-4-18-1h-18v-358h18q9 0 20-5t22-15 22-19 22-25 19-24 18-23 13-16q30-38 43-51 23-24 33-61t17-70 21-48q54 0 72 27t17 81q0 32-26 89t-27 89h196q28 0 50 22t22 49z m71-1q0-57-42-100t-101-42h-98q27-55 27-107 0-66-20-104-19-39-57-57t-84-18q-28 0-50 21-19 18-30 45t-14 51-10 47-17 36q-27 28-60 71-57 73-77 86h-153q-29 0-50 21t-21 51v357q0 29 21 50t50 21h161q12 0 77 22 72 25 125 37t111 13h63q78 0 126-45t48-120v-3q33-43 33-99 0-13-1-24 21-38 21-81 0-20-5-38 27-41 27-91z" horiz-adv-x="857.1" />
<glyph glyph-name="thumbs-up-alt" unicode="&#xe842;" d="m143 100q0 15-11 25t-25 11q-15 0-25-11t-11-25q0-15 11-25t25-11q15 0 25 11t11 25z m89 286v-357q0-15-10-25t-26-11h-160q-15 0-25 11t-11 25v357q0 14 11 25t25 10h160q15 0 26-10t10-25z m661 0q0-48-31-83 9-25 9-43 1-42-24-76 9-32 0-66-9-31-31-52 5-63-27-101-36-43-110-44h-72q-37 0-80 9t-68 16-67 22q-69 24-88 25-15 0-26 11t-10 25v357q0 14 10 25t24 11q13 1 42 33t57 67q38 49 56 67 10 10 17 27t10 27 8 34q4 22 7 34t11 29 18 28q11 11 26 11 25 0 46-6t33-15 22-22 14-26 7-27 2-26 1-21q0-21-6-43t-10-33-16-31q-1-4-5-10t-6-13-5-13h155q43 0 75-32t32-75z" horiz-adv-x="928.6" />
<glyph glyph-name="thumbs-down-alt" unicode="&#xe843;" d="m143 529q0-15-11-26t-25-10q-15 0-25 10t-11 26q0 15 11 25t25 10q15 0 25-10t11-25z m89-286v357q0 15-10 25t-26 11h-160q-15 0-25-11t-11-25v-357q0-15 11-25t25-11h160q15 0 26 11t10 25z m630 83q31-34 31-83-1-44-32-75t-75-32h-155q2-8 5-14t6-12 5-10q10-21 15-32t11-32 6-43q0-14-1-22t-2-25-7-28-14-25-22-23-33-14-46-6q-15 0-26 11-11 11-18 27t-11 29-7 35q-5 23-8 33t-10 27-17 27q-18 19-56 67-28 36-57 68t-42 33q-14 1-24 11t-10 24v358q0 15 10 25t26 11q19 0 88 24 43 15 67 22t68 16 80 9h72q74-1 110-43 32-39 27-101 22-21 31-53 9-34 0-65 25-34 24-77 0-18-9-42z" horiz-adv-x="928.6" />
<glyph glyph-name="download" unicode="&#xe844;" d="m714 100q0 15-10 25t-25 11-26-11-10-25 10-25 26-11 25 11 10 25z m143 0q0 15-10 25t-26 11-25-11-10-25 10-25 25-11 26 11 10 25z m72 125v-179q0-22-16-37t-38-16h-821q-23 0-38 16t-16 37v179q0 22 16 38t38 16h259l75-76q33-32 76-32t76 32l76 76h259q22 0 38-16t16-38z m-182 318q10-23-8-40l-250-250q-10-10-25-10t-25 10l-250 250q-17 17-8 40 10 21 33 21h143v250q0 15 11 25t25 11h143q14 0 25-11t10-25v-250h143q24 0 33-21z" horiz-adv-x="928.6" />
<glyph glyph-name="upload" unicode="&#xe845;" d="m714 29q0 14-10 25t-25 10-26-10-10-25 10-26 26-10 25 10 10 26z m143 0q0 14-10 25t-26 10-25-10-10-25 10-26 25-10 26 10 10 26z m72 125v-179q0-22-16-38t-38-16h-821q-23 0-38 16t-16 38v179q0 22 16 38t38 15h238q12-31 39-51t62-20h143q34 0 61 20t40 51h238q22 0 38-15t16-38z m-182 361q-9-22-33-22h-143v-250q0-15-10-25t-25-11h-143q-15 0-25 11t-11 25v250h-143q-23 0-33 22-9 22 8 39l250 250q10 10 25 10t25-10l250-250q18-17 8-39z" horiz-adv-x="928.6" />
<glyph glyph-name="download-cloud" unicode="&#xe846;" d="m714 332q0 8-5 13t-13 5h-125v196q0 8-5 13t-12 5h-108q-7 0-12-5t-5-13v-196h-125q-8 0-13-5t-5-13q0-8 5-13l196-196q5-5 13-5t13 5l196 196q5 6 5 13z m357-125q0-89-62-151t-152-63h-607q-103 0-177 73t-73 177q0 72 39 134t105 92q-1 17-1 24 0 118 84 202t202 84q87 0 159-49t105-129q40 35 93 35 59 0 101-42t42-101q0-43-23-77 72-17 119-76t46-133z" horiz-adv-x="1071.4" />
<glyph glyph-name="upload-cloud" unicode="&#xe847;" d="m714 368q0 8-5 13l-196 196q-5 5-13 5t-13-5l-196-196q-5-6-5-13 0-8 5-13t13-5h125v-196q0-8 5-13t12-5h108q7 0 12 5t5 13v196h125q8 0 13 5t5 13z m357-161q0-89-62-151t-152-63h-607q-103 0-177 73t-73 177q0 72 39 134t105 92q-1 17-1 24 0 118 84 202t202 84q87 0 159-49t105-129q40 35 93 35 59 0 101-42t42-101q0-43-23-77 72-17 119-76t46-133z" horiz-adv-x="1071.4" />
<glyph glyph-name="reply" unicode="&#xe848;" d="m1000 225q0-93-71-252-2-4-6-13t-7-17-8-12q-6-10-15-10-9 0-13 6t-5 14q0 5 1 15t2 13q3 38 3 69 0 56-10 101t-27 77-45 56-59 39-74 24-86 12-98 3h-125v-143q0-14-10-25t-26-11-25 11l-285 286q-11 10-11 25t11 25l285 286q11 10 25 10t26-10 10-25v-143h125q398 0 488-225 30-75 30-186z" horiz-adv-x="1000" />
<glyph glyph-name="reply-all" unicode="&#xe849;" d="m357 246v-39q0-23-22-33-7-3-14-3-15 0-25 11l-285 286q-11 10-11 25t11 25l285 286q17 17 39 7 22-9 22-32v-39l-221-222q-11-11-11-25t11-25z m643-21q0-32-9-74t-22-77-27-70-22-51l-12-22q-4-10-15-10-3 0-5 1-14 4-13 19 24 223-59 315-36 40-95 62t-150 29v-140q0-23-21-33-8-3-14-3-15 0-25 11l-286 286q-11 10-11 25t11 25l286 286q16 17 39 7 21-9 21-32v-147q230-15 335-123 94-97 94-284z" horiz-adv-x="1000" />
<glyph glyph-name="forward" unicode="&#xe84a;" d="m1000 493q0-15-11-25l-285-286q-11-11-25-11t-26 11-10 25v143h-125q-55 0-98-3t-86-12-74-24-59-39-45-56-27-77-10-101q0-31 3-69 0-4 2-13t1-15q0-8-5-14t-13-6q-9 0-15 10-4 5-8 12t-7 17-6 13q-71 159-71 252 0 111 30 186 90 225 488 225h125v143q0 14 10 25t26 10 25-10l285-286q11-11 11-25z" horiz-adv-x="1000" />
<glyph glyph-name="quote-left" unicode="&#xe84b;" d="m429 314v-214q0-45-32-76t-76-31h-214q-44 0-76 31t-31 76v393q0 58 23 111t61 91 91 61 111 23h35q15 0 26-11t10-25v-72q0-14-10-25t-26-10h-35q-59 0-101-42t-42-101v-18q0-22 16-38t37-16h125q45 0 76-31t32-76z m500 0v-214q0-45-32-76t-76-31h-214q-44 0-76 31t-31 76v393q0 58 23 111t61 91 91 61 111 23h35q15 0 26-11t10-25v-72q0-14-10-25t-26-10h-35q-59 0-101-42t-42-101v-18q0-22 15-38t38-16h125q45 0 76-31t32-76z" horiz-adv-x="928.6" />
<glyph glyph-name="quote-right" unicode="&#xe84c;" d="m429 671v-392q0-58-23-111t-61-91-91-62-111-22h-36q-14 0-25 10t-11 26v71q0 15 11 25t25 11h36q59 0 101 42t42 101v17q0 23-16 38t-38 16h-125q-44 0-76 31t-31 76v214q0 45 31 76t76 32h214q45 0 76-32t32-76z m500 0v-392q0-58-23-111t-61-91-91-62-111-22h-36q-14 0-25 10t-11 26v71q0 15 11 25t25 11h36q59 0 101 42t42 101v17q0 23-16 38t-38 16h-125q-44 0-76 31t-31 76v214q0 45 31 76t76 32h214q45 0 76-32t32-76z" horiz-adv-x="928.6" />
<glyph glyph-name="code" unicode="&#xe84d;" d="m344 69l-28-28q-5-5-12-5t-13 5l-260 260q-6 6-6 13t6 13l260 260q5 6 13 6t12-6l28-28q6-5 6-13t-6-12l-219-220 219-219q6-6 6-13t-6-13z m330 596l-208-721q-2-7-9-11t-13-1l-34 9q-8 3-11 9t-2 14l208 720q3 8 9 11t13 2l35-10q7-2 11-9t1-13z m367-364l-260-260q-6-5-13-5t-13 5l-28 28q-5 6-5 13t5 13l219 219-219 220q-5 5-5 12t5 13l28 28q6 6 13 6t13-6l260-260q5-5 5-13t-5-13z" horiz-adv-x="1071.4" />
<glyph glyph-name="export" unicode="&#xe84e;" d="m786 298v-144q0-67-47-114t-114-47h-464q-67 0-114 47t-47 114v464q0 66 47 113t114 48h142q7 0 13-6t5-12q0-15-15-18-43-15-74-34-5-2-9-2h-62q-37 0-63-26t-27-63v-464q0-37 27-63t63-27h464q37 0 63 27t26 63v119q0 11 10 16 16 7 30 21 9 9 20 4 12-5 12-16z m132 277l-214-214q-10-11-25-11-7 0-14 3-22 9-22 33v107h-89q-181 0-245-73-66-77-41-264 2-13-11-19-5-1-7-1-9 0-14 7-6 8-12 17t-22 38-28 56-21 64-10 68q0 27 2 50t8 51 15 49 27 45 38 42 52 34 70 27 89 17 110 6h89v107q0 24 22 33 7 3 14 3 14 0 25-11l214-214q11-11 11-25t-11-25z" horiz-adv-x="928.6" />
<glyph glyph-name="export-alt" unicode="&#xe84f;" d="m561 236l196 196q11 11 11 25t-11 25l-196 197q-17 17-39 7-22-9-22-32v-90q-66 0-121-11t-90-28-64-44-42-53-25-61-12-62-3-62q0-101 93-226 6-6 14-6 4 0 7 1 13 5 11 19-25 197 34 264 26 29 73 42t125 13v-89q0-24 22-33 7-3 14-3 14 0 25 11z m296 382v-536q0-66-47-113t-114-48h-535q-67 0-114 48t-47 113v536q0 66 47 113t114 48h535q67 0 114-48t47-113z" horiz-adv-x="857.1" />
<glyph glyph-name="share" unicode="&#xe850;" d="m679 279q74 0 126-53t52-126-52-126-126-53-127 53-52 126q0 7 1 19l-201 100q-51-48-121-48-75 0-127 53t-52 126 52 126 127 53q70 0 121-48l201 100q-1 12-1 19 0 74 52 126t127 53 126-53 52-126-52-126-126-53q-71 0-122 48l-201-100q1-12 1-19t-1-19l201-100q51 48 122 48z" horiz-adv-x="857.1" />
<glyph glyph-name="share-squared" unicode="&#xe851;" d="m714 183q0 49-35 84t-84 36q-46 0-80-33l-135 67q1 9 1 13t-1 13l135 67q34-33 80-33 50 0 84 36t35 84-35 84-84 35-84-35-35-84q0-4 1-13l-134-67q-35 32-81 32-49 0-84-35t-35-84 35-84 84-35q46 0 81 32l134-67q-1-9-1-13 0-49 35-84t84-35 84 35 35 84z m143 435v-536q0-66-47-113t-114-48h-535q-67 0-114 48t-47 113v536q0 66 47 113t114 48h535q67 0 114-48t47-113z" horiz-adv-x="857.1" />
<glyph glyph-name="pencil" unicode="&#xe852;" d="m203-7l50 51-131 131-51-51v-60h72v-71h60z m291 518q0 12-12 12-5 0-9-4l-303-302q-4-4-4-10 0-12 13-12 5 0 9 4l303 302q3 4 3 10z m-30 107l232-232-464-465h-232v233z m381-54q0-29-20-50l-93-93-232 233 93 92q20 21 50 21 29 0 51-21l131-131q20-22 20-51z" horiz-adv-x="857.1" />
<glyph glyph-name="pencil-squared" unicode="&#xe853;" d="m225 232l85-85-29-29h-31v53h-54v32z m231 217q8-7-1-16l-163-163q-9-9-16-1-8 7 1 16l163 163q9 9 16 1z m-152-385l303 304-161 161-303-304v-161h161z m339 340l51 51q16 16 16 38t-16 38l-85 85q-15 15-38 15t-38-15l-51-52z m214 214v-536q0-66-47-113t-114-48h-535q-67 0-114 48t-47 113v536q0 66 47 113t114 48h535q67 0 114-48t47-113z" horiz-adv-x="857.1" />
<glyph glyph-name="edit" unicode="&#xe854;" d="m496 189l64 65-85 85-64-65v-31h53v-54h32z m245 402q-9 9-18 0l-196-196q-9-9 0-18t18 0l196 196q9 9 0 18z m45-331v-106q0-67-47-114t-114-47h-464q-67 0-114 47t-47 114v464q0 66 47 113t114 48h464q35 0 65-14 9-4 10-13 2-10-5-16l-27-28q-8-8-18-4-13 3-25 3h-464q-37 0-63-26t-27-63v-464q0-37 27-63t63-27h464q37 0 63 27t26 63v70q0 7 5 12l36 36q8 8 20 4t11-16z m-54 411l161-160-375-375h-161v160z m248-73l-51-52-161 161 51 51q16 16 38 16t38-16l85-84q16-16 16-38t-16-38z" horiz-adv-x="1000" />
<glyph glyph-name="print" unicode="&#xe855;" d="m214-7h500v143h-500v-143z m0 357h500v214h-89q-22 0-38 16t-16 38v89h-357v-357z m643-36q0 15-10 25t-26 11-25-11-10-25 10-25 25-10 26 10 10 25z m72 0v-232q0-7-6-12t-12-6h-125v-89q0-22-16-38t-38-16h-536q-22 0-37 16t-16 38v89h-125q-7 0-13 6t-5 12v232q0 44 32 76t75 31h36v304q0 22 16 38t37 16h375q23 0 50-12t42-26l85-85q15-16 27-43t11-49v-143h35q45 0 76-31t32-76z" horiz-adv-x="928.6" />
<glyph glyph-name="retweet" unicode="&#xe856;" d="m714 11q0-8-5-13t-13-5h-535q-5 0-8 1t-5 4-3 4-2 7 0 6v335h-107q-15 0-25 11t-11 25q0 13 8 23l179 214q11 12 27 12t28-12l178-214q9-10 9-23 0-15-11-25t-25-11h-107v-214h321q9 0 14-6l89-108q4-6 4-11z m357 232q0-14-8-23l-179-214q-11-13-27-13t-27 13l-179 214q-8 9-8 23 0 14 10 25t26 11h107v214h-322q-9 0-14 7l-89 107q-4 5-4 11 0 7 5 12t13 6h536q4 0 7-1t5-4 3-5 2-6 1-7v-334h107q14 0 25-11t10-25z" horiz-adv-x="1071.4" />
<glyph glyph-name="keyboard" unicode="&#xe857;" d="m214 198v-53q0-9-9-9h-53q-9 0-9 9v53q0 9 9 9h53q9 0 9-9z m72 143v-53q0-9-9-9h-125q-9 0-9 9v53q0 9 9 9h125q9 0 9-9z m-72 143v-54q0-9-9-9h-53q-9 0-9 9v54q0 9 9 9h53q9 0 9-9z m572-286v-53q0-9-9-9h-482q-9 0-9 9v53q0 9 9 9h482q9 0 9-9z m-357 143v-53q0-9-9-9h-54q-9 0-9 9v53q0 9 9 9h54q9 0 9-9z m-72 143v-54q0-9-9-9h-53q-9 0-9 9v54q0 9 9 9h53q9 0 9-9z m214-143v-53q0-9-8-9h-54q-9 0-9 9v53q0 9 9 9h54q8 0 8-9z m-71 143v-54q0-9-9-9h-53q-9 0-9 9v54q0 9 9 9h53q9 0 9-9z m214-143v-53q0-9-9-9h-53q-9 0-9 9v53q0 9 9 9h53q9 0 9-9z m215-143v-53q0-9-9-9h-54q-9 0-9 9v53q0 9 9 9h54q9 0 9-9z m-286 286v-54q0-9-9-9h-54q-9 0-9 9v54q0 9 9 9h54q9 0 9-9z m143 0v-54q0-9-9-9h-54q-9 0-9 9v54q0 9 9 9h54q9 0 9-9z m143 0v-196q0-9-9-9h-125q-9 0-9 9v53q0 9 9 9h62v134q0 9 9 9h54q9 0 9-9z m71-420v500h-929v-500h929z m71 500v-500q0-29-21-50t-50-21h-929q-29 0-50 21t-21 50v500q0 30 21 51t50 21h929q30 0 50-21t21-51z" horiz-adv-x="1071.4" />
<glyph glyph-name="gamepad" unicode="&#xe858;" d="m464 243v71q0 8-5 13t-13 5h-107v107q0 8-5 13t-13 5h-71q-8 0-13-5t-5-13v-107h-107q-8 0-13-5t-5-13v-71q0-8 5-13t13-5h107v-107q0-8 5-13t13-5h71q8 0 13 5t5 13v107h107q8 0 13 5t5 13z m322-36q0 30-21 51t-51 21-50-21-21-51 21-50 50-21 51 21 21 50z m143 143q0 30-21 51t-51 20-50-20-21-51 21-50 50-21 51 21 21 50z m142-71q0-119-83-202t-202-84q-107 0-189 71h-123q-81-71-188-71-119 0-202 84t-84 202 84 202 202 83h500q118 0 202-83t83-202z" horiz-adv-x="1071.4" />
<glyph glyph-name="comment" unicode="&#xe859;" d="m1000 350q0-97-67-179t-182-130-251-48q-39 0-81 4-110-97-257-135-27-8-63-12-10-1-17 5t-10 16v1q-2 2 0 6t1 6 2 5l4 5t4 5 4 5q4 5 17 19t20 22 17 22 18 28 15 33 15 42q-88 50-138 123t-51 157q0 73 40 139t106 114 160 76 194 28q136 0 251-48t182-130 67-179z" horiz-adv-x="1000" />
<glyph glyph-name="chat" unicode="&#xe85a;" d="m786 421q0-77-53-143t-143-104-197-38q-48 0-98 9-70-49-155-72-21-5-48-9h-2q-6 0-12 5t-6 12q-1 1-1 3t1 4 1 3l1 3t2 3 2 3 3 3 2 2q3 3 13 14t15 16 12 17 14 21 11 25q-69 40-108 98t-40 125q0 78 53 144t143 104 197 38 197-38 143-104 53-144z m214-142q0-67-40-126t-108-98q5-14 11-25t14-21 13-16 14-17 13-14q0 0 2-2t3-3 2-3 2-3l1-3t1-3 1-4-1-3q-2-8-7-13t-13-4q-27 4-48 9-85 23-155 72-50-9-98-9-151 0-263 74 32-3 49-3 90 0 172 25t148 72q69 52 107 119t37 141q0 43-13 85 72-39 114-99t42-128z" horiz-adv-x="1000" />
<glyph glyph-name="comment-empty" unicode="&#xe85b;" d="m500 636q-114 0-213-39t-157-105-59-142q0-62 40-119t113-98l48-28-15-54q-13-50-39-95 85 35 154 95l24 21 31-3q39-5 73-5 114 0 213 39t157 105 59 142-59 142-157 105-213 39z m500-286q0-97-67-179t-182-130-251-48q-39 0-81 4-110-97-257-135-27-7-63-12h-3q-8 0-15 6t-9 15v1q-2 2 0 7t1 5 2 5l4 5t4 5 4 5q4 5 17 19t20 22 17 22 18 28 15 33 15 42q-88 50-138 123t-51 157q0 97 67 179t182 130 251 48 251-48 182-130 67-179z" horiz-adv-x="1000" />
<glyph glyph-name="chat-empty" unicode="&#xe85c;" d="m393 636q-85 0-160-29t-118-79-44-107q0-45 30-88t83-73l54-32-19-46q19 11 34 21l25 18 30-6q43-8 85-8 85 0 159 29t118 79 44 106-44 107-118 79-159 29z m0 71q106 0 197-38t143-104 53-144-53-143-143-104-197-38q-48 0-98 9-70-49-155-72-21-5-48-9h-2q-6 0-12 5t-6 12q-1 1-1 3t1 4 1 3l1 3t2 3 2 3 3 3 2 2q3 3 13 14t15 16 12 17 14 21 11 25q-69 40-108 98t-40 125q0 78 53 144t143 104 197 38z m459-652q5-14 11-25t14-21 13-16 14-17 13-14q0 0 2-2t3-3 2-3 2-3l1-3t1-3 1-4-1-3q-2-8-7-13t-13-4q-27 4-48 9-85 23-155 72-50-9-98-9-151 0-263 74 32-3 49-3 90 0 172 25t148 72q69 52 107 119t37 141q0 43-13 85 72-39 114-99t42-128q0-67-40-126t-108-98z" horiz-adv-x="1000" />
<glyph glyph-name="bell" unicode="&#xe85d;" d="m509-96q0 8-9 8-33 0-57 24t-23 57q0 9-9 9t-9-9q0-41 29-70t69-28q9 0 9 9z m-372 160h726q-149 168-149 465 0 28-13 58t-39 58-67 45-95 17-95-17-67-45-39-58-13-58q0-297-149-465z m827 0q0-29-21-50t-50-21h-250q0-59-42-101t-101-42-101 42-42 101h-250q-29 0-50 21t-21 50q28 24 51 49t47 67 42 89 27 114 11 146q0 84 66 157t171 89q-5 10-5 21 0 23 16 38t38 16 38-16 16-38q0-11-5-21 106-16 171-89t66-157q0-78 11-146t27-114 42-89 47-67 51-49z" horiz-adv-x="1000" />
<glyph glyph-name="bell-alt" unicode="&#xe85e;" d="m509-96q0 8-9 8-33 0-57 24t-23 57q0 9-9 9t-9-9q0-41 29-70t69-28q9 0 9 9z m455 160q0-29-21-50t-50-21h-250q0-59-42-101t-101-42-101 42-42 101h-250q-29 0-50 21t-21 50q28 24 51 49t47 67 42 89 27 114 11 146q0 84 66 157t171 89q-5 10-5 21 0 23 16 38t38 16 38-16 16-38q0-11-5-21 106-16 171-89t66-157q0-78 11-146t27-114 42-89 47-67 51-49z" horiz-adv-x="1000" />
<glyph glyph-name="bell-off" unicode="&#xe85f;" d="m869 375q34-199 167-311 0-29-22-50t-50-21h-250q0-59-42-101t-101-42-100 42-42 100z m-298-480q9 0 9 9t-9 8q-32 0-56 24t-24 57q0 9-9 9t-9-9q0-41 29-70t69-28z m560 892q4-5 4-13t-6-12l-1045-905q-5-5-13-4t-12 6l-47 53q-4 6-4 14t6 12l104 89q-11 18-11 37 28 24 51 49t47 67 42 89 28 114 11 146q0 84 65 157t171 89q-4 10-4 21 0 23 15 38t38 16 38-16 16-38q0-11-4-21 69-10 122-46t82-88l234 202q5 5 13 4t12-6z" horiz-adv-x="1142.9" />
<glyph glyph-name="bell-off-empty" unicode="&#xe860;" d="m580-96q0 8-9 8-32 0-56 24t-24 57q0 9-9 9t-9-9q0-41 29-70t69-28q9 0 9 9z m-299 265l489 424q-23 49-74 81t-125 33q-51 0-94-17t-68-45-38-58-14-58q0-215-76-360z m755-105q0-29-22-50t-50-21h-250q0-59-42-101t-101-42-100 42-42 100l83 72h422q-92 105-127 256l62 55q34-199 167-311z m48 777l47-54q4-5 4-13t-6-12l-1045-905q-5-5-13-4t-12 6l-47 53q-4 6-4 14t6 12l104 89q-11 18-11 37 28 24 51 49t47 67 42 89 28 114 11 146q0 84 65 157t171 89q-4 10-4 21 0 23 15 38t38 16 38-16 16-38q0-11-4-21 69-10 122-46t82-88l234 202q5 5 13 4t12-6z" horiz-adv-x="1142.9" />
<glyph glyph-name="attention-alt" unicode="&#xe861;" d="m286 154v-125q0-15-11-25t-25-11h-143q-14 0-25 11t-11 25v125q0 14 11 25t25 10h143q15 0 25-10t11-25z m16 589l-15-429q-1-14-12-25t-25-10h-143q-14 0-25 10t-12 25l-15 429q-1 14 9 25t25 11h179q14 0 25-11t9-25z" horiz-adv-x="357.1" />
<glyph glyph-name="attention" unicode="&#xe862;" d="m571 83v106q0 8-5 13t-12 5h-108q-7 0-12-5t-5-13v-106q0-8 5-13t12-6h108q7 0 12 6t5 13z m-1 208l10 257q0 6-5 10-7 6-14 6h-122q-7 0-14-6-5-4-5-12l9-255q0-5 6-9t13-3h103q8 0 13 3t6 9z m-7 522l428-786q20-35-1-70-10-17-26-26t-35-10h-858q-18 0-35 10t-26 26q-21 35-1 70l429 786q9 17 26 27t36 10 36-10 27-27z" horiz-adv-x="1000" />
<glyph glyph-name="attention-circled" unicode="&#xe863;" d="m429 779q116 0 215-58t156-156 57-215-57-215-156-156-215-58-216 58-155 156-58 215 58 215 155 156 216 58z m71-696v106q0 8-5 13t-12 5h-107q-8 0-13-5t-6-13v-106q0-8 6-13t13-6h107q7 0 12 6t5 13z m-1 192l10 346q0 7-6 10-5 5-13 5h-123q-8 0-13-5-6-3-6-10l10-346q0-6 5-10t14-4h103q8 0 13 4t6 10z" horiz-adv-x="857.1" />
<glyph glyph-name="location" unicode="&#xe864;" d="m429 493q0 59-42 101t-101 42-101-42-42-101 42-101 101-42 101 42 42 101z m142 0q0-61-18-100l-203-432q-9-18-27-29t-37-11-38 11-26 29l-204 432q-18 39-18 100 0 118 84 202t202 84 202-84 83-202z" horiz-adv-x="571.4" />
<glyph glyph-name="direction" unicode="&#xe865;" d="m782 655l-357-714q-10-20-32-20-3 0-8 1-13 3-20 13t-8 22v322h-321q-13 0-22 7t-13 20 2 23 17 17l714 357q7 4 16 4 15 0 25-10 8-8 10-20t-3-22z" horiz-adv-x="785.7" />
<glyph glyph-name="compass" unicode="&#xe866;" d="m357 243l143 71-143 72v-143z m214 330v-303l-285-143v303z m161-223q0 83-41 152t-110 111-152 41-153-41-110-111-41-152 41-152 110-111 153-41 152 41 110 111 41 152z m125 0q0-117-57-215t-156-156-215-58-216 58-155 156-58 215 58 215 155 156 216 58 215-58 156-156 57-215z" horiz-adv-x="857.1" />
<glyph glyph-name="trash" unicode="&#xe867;" d="m286 82v393q0 8-5 13t-13 5h-36q-8 0-13-5t-5-13v-393q0-8 5-13t13-5h36q8 0 13 5t5 13z m143 0v393q0 8-5 13t-13 5h-36q-8 0-13-5t-5-13v-393q0-8 5-13t13-5h36q8 0 13 5t5 13z m142 0v393q0 8-5 13t-12 5h-36q-8 0-13-5t-5-13v-393q0-8 5-13t13-5h36q7 0 12 5t5 13z m-303 554h250l-27 65q-4 5-9 6h-177q-6-1-10-6z m518-18v-36q0-8-5-13t-13-5h-54v-529q0-46-26-80t-63-34h-464q-37 0-63 33t-27 79v531h-53q-8 0-13 5t-5 13v36q0 8 5 13t13 5h172l39 93q9 21 31 35t44 15h178q22 0 44-15t30-35l39-93h173q8 0 13-5t5-13z" horiz-adv-x="785.7" />
<glyph glyph-name="indent-left-2" unicode="&#xe868;" d="m1000 732v-213h-669v213h669z m0-334v-213h-669v213h669z m0-335v-213h-669v213h669z m-761 335v-213l-150 106z" horiz-adv-x="1000" />
<glyph glyph-name="doc" unicode="&#xe869;" d="m819 638q16-16 27-42t11-50v-642q0-23-15-38t-38-16h-750q-23 0-38 16t-16 38v892q0 23 16 38t38 16h500q22 0 49-11t42-27z m-248 136v-210h210q-5 16-12 23l-175 175q-6 7-23 12z m215-853v572h-232q-23 0-38 15t-16 38v233h-429v-858h715z" horiz-adv-x="857.1" />
<glyph glyph-name="docs" unicode="&#xe86a;" d="m946 636q23 0 38-16t16-38v-678q0-23-16-38t-38-16h-535q-23 0-38 16t-16 38v160h-303q-23 0-38 16t-16 38v375q0 22 11 49t27 42l228 228q15 16 42 27t49 11h232q23 0 38-16t16-38v-183q38 23 71 23h232z m-303-119l-167-167h167v167z m-357 214l-167-167h167v167z m109-361l176 176v233h-214v-233q0-22-15-38t-38-15h-233v-357h286v143q0 22 11 49t27 42z m534-449v643h-215v-232q0-22-15-38t-38-15h-232v-358h500z" horiz-adv-x="1000" />
<glyph glyph-name="doc-text" unicode="&#xe86b;" d="m819 638q16-16 27-42t11-50v-642q0-23-15-38t-38-16h-750q-23 0-38 16t-16 38v892q0 23 16 38t38 16h500q22 0 49-11t42-27z m-248 136v-210h210q-5 16-12 23l-175 175q-6 7-23 12z m215-853v572h-232q-23 0-38 15t-16 38v233h-429v-858h715z m-572 483q0 7 5 12t13 5h393q8 0 13-5t5-12v-36q0-8-5-13t-13-5h-393q-8 0-13 5t-5 13v36z m411-125q8 0 13-5t5-13v-36q0-8-5-13t-13-5h-393q-8 0-13 5t-5 13v36q0 8 5 13t13 5h393z m0-143q8 0 13-5t5-13v-36q0-8-5-13t-13-5h-393q-8 0-13 5t-5 13v36q0 8 5 13t13 5h393z" horiz-adv-x="857.1" />
<glyph glyph-name="doc-inv" unicode="&#xe86c;" d="m571 564v264q13-8 21-16l227-228q8-7 16-20h-264z m-71-18q0-22 16-38t38-15h303v-589q0-23-15-38t-38-16h-750q-23 0-38 16t-16 38v892q0 23 16 38t38 16h446v-304z" horiz-adv-x="857.1" />
<glyph glyph-name="doc-text-inv" unicode="&#xe86d;" d="m819 584q8-7 16-20h-264v264q13-8 21-16z m-265-91h303v-589q0-23-15-38t-38-16h-750q-23 0-38 16t-16 38v892q0 23 16 38t38 16h446v-304q0-22 16-38t38-15z m89-411v36q0 8-5 13t-13 5h-393q-8 0-13-5t-5-13v-36q0-8 5-13t13-5h393q8 0 13 5t5 13z m0 143v36q0 7-5 12t-13 5h-393q-8 0-13-5t-5-12v-36q0-8 5-13t13-5h393q8 0 13 5t5 13z m0 143v35q0 8-5 13t-13 5h-393q-8 0-13-5t-5-13v-35q0-8 5-13t13-5h393q8 0 13 5t5 13z" horiz-adv-x="857.1" />
<glyph glyph-name="file-pdf" unicode="&#xe86e;" d="m819 638q16-16 27-42t11-50v-642q0-23-15-38t-38-16h-750q-23 0-38 16t-16 38v892q0 23 16 38t38 16h500q22 0 49-11t42-27z m-248 136v-210h210q-5 16-12 23l-175 175q-6 7-23 12z m215-853v572h-232q-23 0-38 15t-16 38v233h-429v-858h715z m-287 331q18-14 47-31 33 4 65 4 82 0 99-27 9-13 1-29 0-1-1-1l-1-2v0q-3-21-39-21-27 0-65 11t-72 29q-123-13-219-46-85-146-135-146-8 0-15 4l-14 6q0 1-3 3-6 6-4 20 5 23 32 51t73 54q8 5 13-3 1-1 1-2 29 47 60 110 38 76 58 146-13 46-17 89t4 71q6 22 23 22h12q13 0 20-8 10-12 5-38-1-3-2-4 0-2 0-5v-17q-1-68-8-107 31-91 82-133z m-322-229q30 13 77 88-29-22-49-47t-28-41z m223 513q-9-23-2-73 1 4 4 24 0 2 4 24 1 3 3 5-1 0-1 1t0 1-1 1q0 12-7 20 0-1 0-1v-2z m-70-368q76 30 159 45-1 0-7 5t-9 8q-43 37-71 98-15-48-47-110-16-31-25-46z m361 8q-14 14-78 14 42-16 69-16 8 0 10 1 0 0-1 1z" horiz-adv-x="857.1" />
<glyph glyph-name="file-word" unicode="&#xe86f;" d="m819 638q16-16 27-42t11-50v-642q0-23-15-38t-38-16h-750q-23 0-38 16t-16 38v892q0 23 16 38t38 16h500q22 0 49-11t42-27z m-248 136v-210h210q-5 16-12 23l-175 175q-6 7-23 12z m215-853v572h-232q-23 0-38 15t-16 38v233h-429v-858h715z m-656 500v-59h39l92-369h88l72 271q4 11 5 25 1 9 1 14h3l1-14q1-1 2-11t3-14l72-271h89l91 369h39v59h-167v-59h50l-55-245q-3-11-4-25l-1-12h-3l-1 12q-1 2-2 11t-3 14l-81 304h-63l-81-304q-1-5-2-13t-2-12l-2-12h-2l-2 12q-1 14-4 25l-55 245h50v59h-167z" horiz-adv-x="857.1" />
<glyph glyph-name="file-excel" unicode="&#xe870;" d="m819 638q16-16 27-42t11-50v-642q0-23-15-38t-38-16h-750q-23 0-38 16t-16 38v892q0 23 16 38t38 16h500q22 0 49-11t42-27z m-248 136v-210h210q-5 16-12 23l-175 175q-6 7-23 12z m215-853v572h-232q-23 0-38 15t-16 38v233h-429v-858h715z m-547 131v-59h157v59h-42l58 90q3 4 5 9t5 8 2 2h1q0-2 2-6 2-2 3-4t3-4 4-5l60-90h-43v-59h163v59h-38l-107 152 108 158h38v59h-156v-59h41l-57-89q-2-4-6-9t-5-8l-1-1h-1q-1 2-3 5-3 6-9 13l-59 89h42v59h-162v-59h38l106-152-109-158h-38z" horiz-adv-x="857.1" />
<glyph glyph-name="file-powerpoint" unicode="&#xe871;" d="m819 638q16-16 27-42t11-50v-642q0-23-15-38t-38-16h-750q-23 0-38 16t-16 38v892q0 23 16 38t38 16h500q22 0 49-11t42-27z m-248 136v-210h210q-5 16-12 23l-175 175q-6 7-23 12z m215-853v572h-232q-23 0-38 15t-16 38v233h-429v-858h715z m-554 131v-59h183v59h-52v93h76q43 0 66 9 37 12 59 48t23 82q0 45-21 78t-56 49q-27 10-72 10h-206v-59h52v-310h-52z m197 156h-66v150h67q29 0 46-10 31-19 31-64 0-50-34-67-18-9-44-9z" horiz-adv-x="857.1" />
<glyph glyph-name="file-image" unicode="&#xe872;" d="m819 638q16-16 27-42t11-50v-642q0-23-15-38t-38-16h-750q-23 0-38 16t-16 38v892q0 23 16 38t38 16h500q22 0 49-11t42-27z m-248 136v-210h210q-5 16-12 23l-175 175q-6 7-23 12z m215-853v572h-232q-23 0-38 15t-16 38v233h-429v-858h715z m-72 250v-178h-571v107l107 107 71-71 215 214z m-464 108q-45 0-76 31t-31 76 31 76 76 31 76-31 31-76-31-76-76-31z" horiz-adv-x="857.1" />
<glyph glyph-name="file-archive" unicode="&#xe873;" d="m357 636v71h-71v-71h71z m72-72v72h-72v-72h72z m-72-71v71h-71v-71h71z m72-72v72h-72v-72h72z m390 217q16-16 27-42t11-50v-642q0-23-15-38t-38-16h-750q-23 0-38 16t-16 38v892q0 23 16 38t38 16h500q22 0 49-11t42-27z m-248 136v-210h210q-5 16-12 23l-175 175q-6 7-23 12z m215-853v572h-232q-23 0-38 15t-16 38v233h-71v-72h-72v72h-286v-858h715z m-350 403l60-195q4-15 4-29 0-46-40-77t-103-30-102 30-41 77q0 14 5 29 12 35 67 221v71h71v-71h44q13 0 22-7t13-19z m-79-260q30 0 51 11t21 25-21 25-51 11-50-11-21-25 21-25 50-11z" horiz-adv-x="857.1" />
<glyph glyph-name="file-audio" unicode="&#xe874;" d="m819 638q16-16 27-42t11-50v-642q0-23-15-38t-38-16h-750q-23 0-38 16t-16 38v892q0 23 16 38t38 16h500q22 0 49-11t42-27z m-248 136v-210h210q-5 16-12 23l-175 175q-6 7-23 12z m215-853v572h-232q-23 0-38 15t-16 38v233h-429v-858h715z m-440 455q11-5 11-17v-304q0-12-11-16-4-1-7-1-6 0-13 5l-92 93h-73q-8 0-13 5t-5 13v107q0 8 5 13t13 5h73l92 93q9 8 20 4z m233-385q17 0 28 14 72 88 72 202t-72 203q-9 11-24 13t-27-8q-11-9-13-24t8-26q56-69 56-158t-56-157q-9-12-8-27t13-24q10-8 23-8z m-118 83q15 0 26 11 49 52 49 122t-49 122q-10 11-25 12t-26-10-11-25 10-26q29-32 29-73t-29-73q-10-11-10-26t11-25q12-9 25-9z" horiz-adv-x="857.1" />
<glyph glyph-name="file-video" unicode="&#xe875;" d="m819 638q16-16 27-42t11-50v-642q0-23-15-38t-38-16h-750q-23 0-38 16t-16 38v892q0 23 16 38t38 16h500q22 0 49-11t42-27z m-248 136v-210h210q-5 16-12 23l-175 175q-6 7-23 12z m215-853v572h-232q-23 0-38 15t-16 38v233h-429v-858h715z m-357 500q29 0 50-21t21-50v-214q0-29-21-50t-50-22h-215q-29 0-50 22t-21 50v214q0 29 21 50t50 21h215z m274-1q11-4 11-16v-322q0-12-11-17-4-1-7-1-7 0-12 5l-148 149v50l148 148q5 5 12 5 3 0 7-1z" horiz-adv-x="857.1" />
<glyph glyph-name="file-code" unicode="&#xe876;" d="m819 638q16-16 27-42t11-50v-642q0-23-15-38t-38-16h-750q-23 0-38 16t-16 38v892q0 23 16 38t38 16h500q22 0 49-11t42-27z m-248 136v-210h210q-5 16-12 23l-175 175q-6 7-23 12z m215-853v572h-232q-23 0-38 15t-16 38v233h-429v-858h715z m-518 500q4 7 12 7t13-3l28-21q7-5 7-12t-3-14l-102-135 102-136q4-6 3-13t-7-12l-28-21q-6-4-13-4t-12 7l-126 168q-8 11 0 21z m447-168q8-10 0-21l-126-168q-4-6-11-7t-14 4l-28 21q-6 5-7 12t3 13l102 136-102 135q-4 7-3 14t7 12l28 21q6 4 14 3t11-7z m-346-257q-7 1-11 7t-3 14l77 464q1 7 7 11t14 3l35-5q7-2 11-8t3-13l-77-464q-1-7-7-11t-13-3z" horiz-adv-x="857.1" />
<glyph glyph-name="folder" unicode="&#xe877;" d="m929 511v-393q0-51-37-88t-88-37h-679q-51 0-88 37t-37 88v536q0 51 37 88t88 37h179q51 0 88-37t37-88v-18h375q51 0 88-37t37-88z" horiz-adv-x="928.6" />
<glyph glyph-name="folder-open" unicode="&#xe878;" d="m1049 319q0-18-18-37l-187-221q-24-28-67-48t-81-20h-607q-19 0-33 7t-15 24q0 17 17 37l188 221q24 28 67 48t80 20h607q19 0 34-7t15-24z m-192 192v-90h-464q-53 0-110-26t-92-67l-188-221-2-3q0 2-1 7t0 7v536q0 51 37 88t88 37h179q51 0 88-37t37-88v-18h303q51 0 88-37t37-88z" horiz-adv-x="1071.4" />
<glyph glyph-name="folder-empty" unicode="&#xe879;" d="m857 118v393q0 22-15 38t-38 15h-393q-23 0-38 16t-16 38v36q0 22-15 38t-38 15h-179q-22 0-38-15t-16-38v-536q0-22 16-38t38-16h679q22 0 38 16t15 38z m72 393v-393q0-51-37-88t-88-37h-679q-51 0-88 37t-37 88v536q0 51 37 88t88 37h179q51 0 88-37t37-88v-18h375q51 0 88-37t37-88z" horiz-adv-x="928.6" />
<glyph glyph-name="folder-open-empty" unicode="&#xe87a;" d="m994 330q0 20-30 20h-607q-22 0-48-12t-39-29l-164-203q-11-13-11-22 0-20 30-20h607q22 0 48 13t40 29l164 203q10 12 10 21z m-637 91h429v90q0 22-16 38t-38 15h-321q-23 0-38 16t-16 38v36q0 22-15 38t-38 15h-179q-22 0-38-15t-16-38v-476l143 175q25 30 65 49t78 19z m708-91q0-34-25-66l-165-203q-24-30-65-49t-78-19h-607q-51 0-88 37t-37 88v536q0 51 37 88t88 37h179q51 0 88-37t37-88v-18h303q51 0 88-37t37-88v-90h107q30 0 56-13t37-40q8-17 8-38z" horiz-adv-x="1071.4" />
<glyph glyph-name="box" unicode="&#xe87b;" d="m607 386q0 14-10 25t-26 10h-142q-15 0-26-10t-10-25 10-25 26-11h142q15 0 26 11t10 25z m322 107v-536q0-14-11-25t-25-11h-786q-14 0-25 11t-11 25v536q0 14 11 25t25 11h786q14 0 25-11t11-25z m35 250v-143q0-15-10-25t-25-11h-858q-14 0-25 11t-10 25v143q0 14 10 25t25 11h858q14 0 25-11t10-25z" horiz-adv-x="1000" />
<glyph glyph-name="rss" unicode="&#xe87c;" d="m214 100q0-45-31-76t-76-31-76 31-31 76 31 76 76 31 76-31 31-76z m286-69q1-15-9-26-11-12-27-12h-75q-14 0-24 9t-11 23q-12 128-103 219t-219 103q-14 1-23 11t-9 24v75q0 16 12 26 9 10 24 10h3q89-7 170-45t145-101q63-63 101-145t45-171z m286-1q1-15-10-26-10-11-26-11h-80q-14 0-25 10t-11 23q-6 120-56 228t-129 188-188 129-227 57q-14 0-24 11t-10 24v80q0 15 11 26 10 10 25 10h1q147-8 280-67t238-164q104-104 164-238t67-280z" horiz-adv-x="785.7" />
<glyph glyph-name="rss-squared" unicode="&#xe87d;" d="m286 136q0 29-21 50t-51 21-50-21-21-50 21-51 50-21 51 21 21 51z m196-53q-8 130-99 221t-221 99q-8 1-14-5t-5-13v-71q0-8 5-13t12-5q86-6 147-68t67-147q1-7 6-12t12-5h72q7 0 13 6t5 13z m214 0q-3 86-31 166t-78 145-115 114-145 78-166 31q-8 1-13-5-5-5-5-13v-71q0-7 5-12t12-6q114-4 211-62t156-155 62-211q0-8 5-13t13-5h71q7 0 13 6 6 5 5 13z m161 535v-536q0-66-47-113t-114-48h-535q-67 0-114 48t-47 113v536q0 66 47 113t114 48h535q67 0 114-48t47-113z" horiz-adv-x="857.1" />
<glyph glyph-name="phone" unicode="&#xe87e;" d="m786 158q0-15-6-39t-12-38q-11-28-68-60-52-28-103-28-16 0-30 2t-32 7-26 8-31 11-28 10q-54 20-97 47-72 44-148 120t-120 148q-27 43-46 97-2 5-10 28t-12 31-8 26-7 32-2 29q0 52 29 104 31 56 59 68 14 6 38 12t39 6q8 0 12-2 10-3 30-43 6-10 16-30t20-35 17-30q2-2 10-14t12-20 4-16q0-11-16-28t-35-30-34-30-16-25q0-5 3-13t4-11 8-14 7-10q42-77 97-132t131-97q1 0 10-6t14-8 11-5 13-2q10 0 25 15t30 35 31 35 28 16q7 0 15-4t20-12 14-10q14-8 30-17t35-20 31-17q39-19 42-29 2-4 2-12z" horiz-adv-x="785.7" />
<glyph glyph-name="phone-squared" unicode="&#xe87f;" d="m714 184q0 6-1 9-1 5-21 17t-50 27l-29 16q-3 2-11 8t-14 8-12 3q-10 0-26-18t-32-37-24-18q-4 0-9 2t-9 3-9 6-8 4q-56 31-95 71t-71 95q-1 2-5 8t-5 9-4 9-2 9q0 8 12 19t25 21 25 23 11 20q0 5-2 12t-9 14-7 10q-2 4-8 16t-14 25-15 27-14 23-9 10-9 1q-27 0-56-13-26-11-45-52t-19-73q0-9 1-19t3-17 5-19 6-16 7-18 6-17q33-92 121-179t178-121q4-1 17-6t19-7 16-5 18-5 17-3 19-2q32 0 73 19t53 45q12 30 12 56z m143 434v-536q0-66-47-113t-114-48h-535q-67 0-114 48t-47 113v536q0 66 47 113t114 48h535q67 0 114-48t47-113z" horiz-adv-x="857.1" />
<glyph glyph-name="fax" unicode="&#xe880;" d="m161 636q37 0 63-27t26-63v-607q0-36-26-63t-63-26h-72q-36 0-63 26t-26 63v607q0 37 26 63t63 27h72z m768-91q32-19 51-52t20-72v-428q0-59-42-101t-101-42h-482q-37 0-63 26t-26 63v857q0 23 15 38t38 16h375q23 0 49-11t43-27l85-85q15-15 26-42t12-49v-91z m-411-552v71q0 8-5 13t-13 5h-71q-8 0-13-5t-5-13v-71q0-8 5-13t13-5h71q8 0 13 5t5 13z m0 143v71q0 8-5 13t-13 5h-71q-8 0-13-5t-5-13v-71q0-8 5-13t13-5h71q8 0 13 5t5 13z m0 143v71q0 8-5 13t-13 5h-71q-8 0-13-5t-5-13v-71q0-8 5-13t13-5h71q8 0 13 5t5 13z m143-286v71q0 8-5 13t-13 5h-72q-7 0-12-5t-5-13v-71q0-8 5-13t12-5h72q8 0 13 5t5 13z m0 143v71q0 8-5 13t-13 5h-72q-7 0-12-5t-5-13v-71q0-8 5-13t12-5h72q8 0 13 5t5 13z m0 143v71q0 8-5 13t-13 5h-72q-7 0-12-5t-5-13v-71q0-8 5-13t12-5h72q8 0 13 5t5 13z m143-286v71q0 8-5 13t-13 5h-72q-8 0-13-5t-5-13v-71q0-8 5-13t13-5h72q8 0 13 5t5 13z m0 143v71q0 8-5 13t-13 5h-72q-8 0-13-5t-5-13v-71q0-8 5-13t13-5h72q8 0 13 5t5 13z m0 143v71q0 8-5 13t-13 5h-72q-8 0-13-5t-5-13v-71q0-8 5-13t13-5h72q8 0 13 5t5 13z m53 214v143h-89q-22 0-38 15t-16 38v90h-357v-286h500z" horiz-adv-x="1000" />
<glyph glyph-name="menu" unicode="&#xe881;" d="m857 100v-71q0-15-10-25t-26-11h-785q-15 0-25 11t-11 25v71q0 15 11 25t25 11h785q15 0 26-11t10-25z m0 286v-72q0-14-10-25t-26-10h-785q-15 0-25 10t-11 25v72q0 14 11 25t25 10h785q15 0 26-10t10-25z m0 285v-71q0-15-10-25t-26-11h-785q-15 0-25 11t-11 25v71q0 15 11 26t25 10h785q15 0 26-10t10-26z" horiz-adv-x="857.1" />
<glyph glyph-name="cog" unicode="&#xe882;" d="m571 350q0 59-41 101t-101 42-101-42-42-101 42-101 101-42 101 42 41 101z m286 61v-124q0-7-4-13t-11-7l-104-16q-10-30-21-51 19-27 59-77 6-6 6-13t-5-13q-15-21-55-61t-53-39q-7 0-14 5l-77 60q-25-13-51-21-9-76-16-104-4-16-20-16h-124q-8 0-14 5t-6 12l-16 103q-27 9-50 21l-79-60q-6-5-14-5-8 0-14 6-70 64-92 94-4 5-4 13 0 6 5 12 8 12 28 37t30 40q-15 28-23 55l-102 15q-7 1-11 7t-5 13v124q0 7 5 13t10 7l104 16q8 25 22 51-23 32-60 77-6 7-6 14 0 5 5 12 15 20 55 60t53 40q7 0 15-5l77-60q24 13 50 21 9 76 17 104 3 15 20 15h124q7 0 13-4t7-12l15-103q28-9 50-21l80 60q5 5 13 5 7 0 14-5 72-67 92-95 4-5 4-13 0-6-4-12-9-12-29-38t-30-39q14-28 23-55l102-15q7-1 12-7t4-13z" horiz-adv-x="857.1" />
<glyph glyph-name="cog-alt" unicode="&#xe883;" d="m500 350q0 59-42 101t-101 42-101-42-42-101 42-101 101-42 101 42 42 101z m429-286q0 29-22 51t-50 21-50-21-21-51q0-29 21-50t50-21 51 21 21 50z m0 572q0 29-22 50t-50 21-50-21-21-50q0-30 21-51t50-21 51 21 21 51z m-215-235v-103q0-6-4-11t-9-6l-86-14q-6-19-18-42 19-27 50-64 4-6 4-11 0-7-4-11-13-17-46-50t-44-33q-6 0-11 4l-64 50q-21-11-43-17-6-60-13-87-4-13-17-13h-104q-6 0-11 4t-5 10l-13 85q-19 6-42 18l-66-50q-4-4-11-4-6 0-12 4-80 75-80 90 0 5 4 10 5 8 23 30t26 34q-13 24-20 46l-85 13q-5 1-9 5t-4 11v103q0 6 4 11t9 6l86 14q7 19 18 42-19 27-50 64-4 6-4 11 0 7 4 11 12 17 46 50t44 33q6 0 12-4l64-50q19 10 43 18 6 60 13 86 3 13 16 13h104q6 0 11-4t6-10l13-85q19-6 41-17l66 49q5 4 11 4 7 0 12-4 81-75 81-90 0-5-4-10-7-9-24-30t-25-34q13-27 19-46l85-12q5-2 9-6t4-11z m357-298v-78q0-9-83-17-6-15-16-29 28-63 28-77 0-2-2-4-68-40-69-40-5 0-26 27t-29 37q-11-1-17-1t-17 1q-7-11-29-37t-25-27q-1 0-69 40-3 2-3 4 0 14 29 77-10 14-17 29-83 8-83 17v78q0 9 83 18 7 16 17 29-29 63-29 77 0 2 3 4 2 1 19 11t33 19 17 9q4 0 25-26t29-38q12 1 17 1t17-1q28 40 51 63l4 1q2 0 69-39 2-2 2-4 0-14-28-77 9-13 16-29 83-9 83-18z m0 572v-78q0-9-83-18-6-15-16-29 28-63 28-77 0-2-2-4-68-39-69-39-5 0-26 26t-29 38q-11-1-17-1t-17 1q-7-12-29-38t-25-26q-1 0-69 39-3 2-3 4 0 14 29 77-10 14-17 29-83 9-83 18v78q0 9 83 17 7 16 17 29-29 63-29 77 0 2 3 4 2 1 19 11t33 19 17 9q4 0 25-26t29-38q12 2 17 2t17-2q28 40 51 63l4 1q2 0 69-39 2-2 2-4 0-14-28-77 9-13 16-29 83-8 83-17z" horiz-adv-x="1071.4" />
<glyph glyph-name="wrench" unicode="&#xe884;" d="m214 29q0 14-10 25t-25 10-26-10-10-25 10-26 26-10 25 10 10 26z m360 234l-381-381q-21-20-50-20-29 0-51 20l-59 61q-21 20-21 50 0 29 21 51l380 380q22-55 64-97t97-64z m353 243q0-22-12-59-27-75-92-122t-144-46q-104 0-177 73t-73 177 73 176 177 74q32 0 67-10t60-26q9-6 9-15t-9-16l-163-94v-125l108-60q2 2 44 27t75 45 40 20q8 0 13-5t4-14z" horiz-adv-x="928.6" />
<glyph glyph-name="sliders" unicode="&#xe885;" d="m196 64v-71h-196v71h196z m197 72q14 0 25-11t11-25v-143q0-14-11-25t-25-11h-143q-14 0-25 11t-11 25v143q0 15 11 25t25 11h143z m89 214v-71h-482v71h482z m-357 286v-72h-125v72h125z m732-572v-71h-411v71h411z m-536 643q15 0 26-10t10-26v-142q0-15-10-26t-26-10h-142q-15 0-26 10t-10 26v142q0 15 10 26t26 10h142z m358-286q14 0 25-10t10-25v-143q0-15-10-25t-25-11h-143q-15 0-25 11t-11 25v143q0 14 11 25t25 10h143z m178-71v-71h-125v71h125z m0 286v-72h-482v72h482z" horiz-adv-x="857.1" />
<glyph glyph-name="basket" unicode="&#xe886;" d="m357-7q0-29-21-50t-50-22-50 22-22 50 22 50 50 21 50-21 21-50z m500 0q0-29-21-50t-50-22-51 22-21 50 21 50 51 21 50-21 21-50z m72 607v-286q0-13-10-23t-22-12l-583-68q7-34 7-40 0-8-13-35h513q15 0 26-11t10-25-10-25-26-11h-571q-14 0-25 11t-11 25q0 6 5 18t9 20 12 22 8 16l-98 460h-114q-15 0-25 10t-11 25 11 26 25 10h143q9 0 16-3t10-9 8-14 4-14 3-17 3-14h670q14 0 25-11t11-25z" horiz-adv-x="928.6" />
<glyph glyph-name="calendar" unicode="&#xe887;" d="m71-79h161v161h-161v-161z m197 0h178v161h-178v-161z m-197 197h161v178h-161v-178z m197 0h178v178h-178v-178z m-197 214h161v161h-161v-161z m411-411h179v161h-179v-161z m-214 411h178v161h-178v-161z m428-411h161v161h-161v-161z m-214 197h179v178h-179v-178z m-196 482v161q0 7-6 12t-12 6h-36q-7 0-12-6t-6-12v-161q0-7 6-13t12-5h36q7 0 12 5t6 13z m410-482h161v178h-161v-178z m-214 214h179v161h-179v-161z m214 0h161v161h-161v-161z m18 268v161q0 7-5 12t-13 6h-35q-8 0-13-6t-5-12v-161q0-7 5-13t13-5h35q8 0 13 5t5 13z m215 36v-715q0-29-22-50t-50-21h-786q-29 0-50 21t-21 50v715q0 29 21 50t50 21h72v54q0 36 26 63t63 26h36q37 0 63-26t26-63v-54h214v54q0 36 27 63t63 26h35q37 0 63-26t27-63v-54h71q29 0 50-21t22-50z" horiz-adv-x="928.6" />
<glyph glyph-name="calendar-empty" unicode="&#xe888;" d="m71-79h786v572h-786v-572z m215 679v161q0 8-5 13t-13 5h-36q-8 0-13-5t-5-13v-161q0-8 5-13t13-5h36q8 0 13 5t5 13z m428 0v161q0 8-5 13t-13 5h-35q-8 0-13-5t-5-13v-161q0-8 5-13t13-5h35q8 0 13 5t5 13z m215 36v-715q0-29-22-50t-50-21h-786q-29 0-50 21t-21 50v715q0 29 21 50t50 21h72v54q0 36 26 63t63 26h36q37 0 63-26t26-63v-54h214v54q0 36 27 63t63 26h35q37 0 63-26t27-63v-54h71q29 0 50-21t22-50z" horiz-adv-x="928.6" />
<glyph glyph-name="login" unicode="&#xe889;" d="m661 350q0-14-11-25l-303-304q-11-10-26-10t-25 10-10 25v161h-250q-15 0-25 11t-11 25v214q0 15 11 25t25 11h250v161q0 14 10 25t25 10 26-10l303-304q11-10 11-25z m196 196v-392q0-67-47-114t-114-47h-178q-7 0-13 5t-5 13q0 2-1 11t0 15 2 13 5 11 12 3h178q37 0 63 27t27 63v392q0 37-27 63t-63 27h-174t-6 0-6 2-5 3-4 5-1 8q0 2-1 11t0 15 2 13 5 11 12 3h178q67 0 114-47t47-114z" horiz-adv-x="857.1" />
<glyph glyph-name="logout" unicode="&#xe88a;" d="m357 46q0-2 1-11t0-14-2-14-5-11-12-3h-178q-67 0-114 47t-47 114v392q0 67 47 114t114 47h178q8 0 13-5t5-13q0-2 1-11t0-15-2-13-5-11-12-3h-178q-37 0-63-27t-27-63v-392q0-37 27-63t63-27h174t6 0 7-2 4-3 4-5 1-8z m518 304q0-14-11-25l-303-304q-11-10-25-10t-25 10-11 25v161h-250q-14 0-25 11t-11 25v214q0 15 11 25t25 11h250v161q0 14 11 25t25 10 25-10l303-304q11-10 11-25z" horiz-adv-x="928.6" />
<glyph glyph-name="mic" unicode="&#xe88b;" d="m643 457v-71q0-124-82-215t-204-104v-74h143q15 0 25-11t11-25-11-25-25-11h-357q-15 0-25 11t-11 25 11 25 25 11h143v74q-121 13-204 104t-82 215v71q0 15 11 25t25 11 25-11 10-25v-71q0-104 74-177t176-73 177 73 73 177v71q0 15 11 25t25 11 25-11 11-25z m-143 214v-285q0-74-52-126t-127-53-126 53-52 126v285q0 74 52 127t126 52 127-52 52-127z" horiz-adv-x="642.9" />
<glyph glyph-name="mute" unicode="&#xe88c;" d="m151 323l-56-57q-24 58-24 120v71q0 15 11 25t25 11 25-11 11-25v-71q0-30 8-63z m622 336l-202-202v-71q0-74-52-126t-126-53q-31 0-61 11l-54-54q55-28 115-28 103 0 176 73t74 177v71q0 15 10 25t26 11 25-11 10-25v-71q0-124-82-215t-203-104v-74h142q15 0 26-11t10-25-10-25-26-11h-357q-14 0-25 11t-10 25 10 25 25 11h143v74q-70 7-131 45l-142-142q-5-6-13-6t-12 6l-46 46q-6 5-6 13t6 12l688 689q6 6 13 6t13-6l46-46q5-5 5-13t-5-12z m-212 73l-347-346v285q0 74 53 127t126 52q57 0 103-33t65-85z" horiz-adv-x="785.7" />
<glyph glyph-name="volume-off" unicode="&#xe88d;" d="m429 654v-608q0-14-11-25t-25-10-25 10l-186 186h-146q-15 0-25 11t-11 25v214q0 15 11 25t25 11h146l186 186q10 10 25 10t25-10 11-25z" horiz-adv-x="428.6" />
<glyph glyph-name="volume-down" unicode="&#xe88e;" d="m429 654v-608q0-14-11-25t-25-10-25 10l-186 186h-146q-15 0-25 11t-11 25v214q0 15 11 25t25 11h146l186 186q10 10 25 10t25-10 11-25z m214-304q0-42-24-79t-63-52q-5-3-14-3-14 0-25 10t-10 26q0 12 6 20t17 14 19 12 16 20 6 32-6 32-16 20-19 12-17 14-6 20q0 15 10 26t25 10q9 0 14-3 39-15 63-52t24-79z" horiz-adv-x="642.9" />
<glyph glyph-name="volume-up" unicode="&#xe88f;" d="m429 654v-608q0-14-11-25t-25-10-25 10l-186 186h-146q-15 0-25 11t-11 25v214q0 15 11 25t25 11h146l186 186q10 10 25 10t25-10 11-25z m214-304q0-42-24-79t-63-52q-5-3-14-3-14 0-25 10t-10 26q0 12 6 20t17 14 19 12 16 20 6 32-6 32-16 20-19 12-17 14-6 20q0 15 10 26t25 10q9 0 14-3 39-15 63-52t24-79z m143 0q0-85-48-158t-125-105q-8-3-14-3-15 0-26 11t-10 25q0 22 21 33 32 16 43 25 41 30 64 75t23 97-23 97-64 75q-11 9-43 25-21 11-21 33 0 14 10 25t25 11q7 0 15-3 78-33 125-105t48-158z m143 0q0-128-71-236t-189-158q-7-3-14-3-15 0-26 11t-10 25q0 20 22 33 4 2 12 6t13 6q25 14 45 28 69 51 108 127t38 161-38 161-108 127q-20 14-45 28-4 3-13 6t-12 6q-22 13-22 33 0 14 10 25t26 11q7 0 14-3 118-51 189-158t71-236z" horiz-adv-x="928.6" />
<glyph glyph-name="headphones" unicode="&#xe890;" d="m929 356q0-93-34-176l-11-27-103-18q-13-47-51-77t-87-29v-18q0-8-5-13t-13-5h-36q-8 0-13 5t-5 13v321q0 8 5 13t13 5h36q8 0 13-5t5-13v-18q39 0 72-20t52-53l38 7q16 53 16 108 0 82-49 155t-132 117-176 43-176-43-132-117-49-156q0-54 16-107l38-7q19 34 52 53t73 20v18q0 8 5 13t13 5h35q8 0 13-5t5-13v-321q0-8-5-13t-13-5h-35q-8 0-13 5t-5 13v18q-49 0-88 29t-50 77l-103 18-11 27q-34 83-34 175 0 85 37 163t100 135 149 91 178 34 179-34 148-91 100-135 38-163z" horiz-adv-x="928.6" />
<glyph glyph-name="clock" unicode="&#xe891;" d="m500 546v-250q0-7-5-12t-13-5h-178q-8 0-13 5t-5 12v36q0 8 5 13t13 5h125v196q0 8 5 13t12 5h36q8 0 13-5t5-13z m232-196q0 83-41 152t-110 111-152 41-153-41-110-111-41-152 41-152 110-111 153-41 152 41 110 111 41 152z m125 0q0-117-57-215t-156-156-215-58-216 58-155 156-58 215 58 215 155 156 216 58 215-58 156-156 57-215z" horiz-adv-x="857.1" />
<glyph glyph-name="lightbulb" unicode="&#xe892;" d="m411 529q0-8-6-13t-12-5-13 5-5 13q0 25-30 39t-59 14q-8 0-13 5t-5 13 5 13 13 5q28 0 55-9t49-30 21-50z m89 0q0 40-19 74t-50 57-69 35-76 12-76-12-69-35-50-57-20-74q0-57 38-101 6-6 17-18t17-19q72-85 79-166h127q8 81 79 166 6 6 17 19t17 18q38 44 38 101z m71 0q0-87-57-150-25-27-42-49t-33-53-19-60q26-15 26-46 0-20-14-35 14-15 14-36 0-29-25-45 8-13 8-26 0-26-18-40t-43-14q-11-25-34-39t-48-15-49 15-33 39q-26 0-44 14t-17 40q0 13 7 26-25 16-25 45 0 21 14 36-14 15-14 35 0 31 26 46-2 28-19 60t-33 53-41 49q-58 63-58 150 0 55 25 103t65 79 92 49 104 19 104-19 91-49 66-79 24-103z" horiz-adv-x="571.4" />
<glyph glyph-name="block" unicode="&#xe893;" d="m732 352q0 90-48 164l-421-420q76-50 166-50 62 0 118 25t96 65 65 97 24 119z m-557-167l421 421q-75 50-167 50-83 0-153-40t-110-112-41-152q0-91 50-167z m682 167q0-88-34-168t-91-137-137-92-166-34-167 34-137 92-91 137-34 168 34 167 91 137 137 91 167 34 166-34 137-91 91-137 34-167z" horiz-adv-x="857.1" />
<glyph glyph-name="resize-full" unicode="&#xe894;" d="m421 261q0-8-5-13l-185-185 80-81q10-10 10-25t-10-25-25-11h-250q-15 0-25 11t-11 25v250q0 15 11 25t25 11 25-11l80-80 185 185q6 6 13 6t13-6l64-63q5-6 5-13z m436 482v-250q0-15-10-25t-26-11-25 11l-80 80-185-185q-6-6-13-6t-13 6l-64 63q-5 6-5 13t5 13l186 185-81 81q-10 10-10 25t10 25 25 11h250q15 0 26-11t10-25z" horiz-adv-x="857.1" />
<glyph glyph-name="resize-full-alt" unicode="&#xe895;" d="m716 548l-198-198 198-198 80 80q16 18 39 8 22-9 22-33v-250q0-14-10-25t-26-11h-250q-23 0-32 23-10 21 7 38l81 81-198 198-198-198 80-81q17-17 8-38-10-23-33-23h-250q-15 0-25 11t-11 25v250q0 24 22 33 22 10 39-8l80-80 198 198-198 198-80-80q-11-11-25-11-7 0-14 3-22 9-22 33v250q0 14 11 25t25 11h250q23 0 33-23 9-22-8-38l-80-81 198-198 198 198-81 81q-17 16-7 38 9 23 32 23h250q15 0 26-11t10-25v-250q0-24-22-33-7-3-14-3-14 0-25 11z" horiz-adv-x="857.1" />
<glyph glyph-name="resize-small" unicode="&#xe896;" d="m429 314v-250q0-14-11-25t-25-10-25 10l-81 81-185-186q-5-5-13-5t-13 5l-63 64q-6 5-6 13t6 13l185 185-80 80q-11 11-11 25t11 25 25 11h250q14 0 25-11t11-25z m421 375q0-7-6-13l-185-185 80-80q11-11 11-25t-11-25-25-11h-250q-14 0-25 11t-10 25v250q0 14 10 25t25 10 25-10l81-81 185 186q6 5 13 5t13-5l63-64q6-5 6-13z" horiz-adv-x="857.1" />
<glyph glyph-name="resize-vertical" unicode="&#xe897;" d="m393 671q0-14-11-25t-25-10h-71v-572h71q15 0 25-10t11-25-11-26l-143-142q-10-11-25-11t-25 11l-143 142q-10 11-10 26t10 25 25 10h72v572h-72q-14 0-25 10t-10 25 10 26l143 142q11 11 25 11t25-11l143-142q11-11 11-26z" horiz-adv-x="428.6" />
<glyph glyph-name="resize-horizontal" unicode="&#xe898;" d="m1000 350q0-14-11-25l-142-143q-11-11-26-11t-25 11-10 25v72h-572v-72q0-14-10-25t-25-11-25 11l-143 143q-11 11-11 25t11 25l143 143q10 11 25 11t25-11 10-25v-72h572v72q0 14 10 25t25 11 26-11l142-143q11-10 11-25z" horiz-adv-x="1000" />
<glyph glyph-name="move" unicode="&#xe899;" d="m1000 350q0-14-11-25l-142-143q-11-11-26-11t-25 11-10 25v72h-215v-215h72q14 0 25-10t11-25-11-26l-143-142q-10-11-25-11t-25 11l-143 142q-11 11-11 26t11 25 25 10h72v215h-215v-72q0-14-10-25t-25-11-26 11l-142 143q-11 11-11 25t11 25l142 143q11 11 26 11t25-11 10-25v-72h215v215h-72q-14 0-25 10t-11 25 11 26l143 142q11 11 25 11t25-11l143-142q11-11 11-26t-11-25-25-10h-72v-215h215v72q0 14 10 25t25 11 26-11l142-143q11-10 11-25z" horiz-adv-x="1000" />
<glyph glyph-name="zoom-in" unicode="&#xe89a;" d="m571 404v-36q0-7-5-13t-12-5h-125v-125q0-7-6-13t-12-5h-36q-7 0-13 5t-5 13v125h-125q-7 0-12 5t-6 13v36q0 7 6 12t12 5h125v125q0 8 5 13t13 5h36q7 0 12-5t6-13v-125h125q7 0 12-5t5-12z m72-18q0 103-74 176t-176 74-177-74-73-176 73-177 177-73 176 73 74 177z m286-465q0-29-21-50t-51-21q-30 0-50 21l-191 191q-100-69-223-69-80 0-153 31t-125 84-84 125-31 153 31 152 84 126 125 84 153 31 152-31 126-84 84-126 31-152q0-123-69-223l191-191q21-21 21-51z" horiz-adv-x="928.6" />
<glyph glyph-name="zoom-out" unicode="&#xe89b;" d="m571 404v-36q0-7-5-13t-12-5h-322q-7 0-12 5t-6 13v36q0 7 6 12t12 5h322q7 0 12-5t5-12z m72-18q0 103-74 176t-176 74-177-74-73-176 73-177 177-73 176 73 74 177z m286-465q0-29-21-50t-51-21q-30 0-50 21l-191 191q-100-69-223-69-80 0-153 31t-125 84-84 125-31 153 31 152 84 126 125 84 153 31 152-31 126-84 84-126 31-152q0-123-69-223l191-191q21-21 21-51z" horiz-adv-x="928.6" />
<glyph glyph-name="down-circled2" unicode="&#xe89c;" d="m625 332q0-7-6-13l-178-178q-6-5-12-5t-13 5l-179 178q-8 9-4 20 5 11 17 11h107v196q0 8 5 13t13 5h107q8 0 13-5t5-13v-196h107q8 0 13-5t5-13z m-196 322q-83 0-153-41t-110-111-41-152 41-152 110-111 153-41 152 41 110 111 41 152-41 152-110 111-152 41z m428-304q0-117-57-215t-156-156-215-58-216 58-155 156-58 215 58 215 155 156 216 58 215-58 156-156 57-215z" horiz-adv-x="857.1" />
<glyph glyph-name="up-circled2" unicode="&#xe89d;" d="m624 361q-5-11-17-11h-107v-196q0-8-5-13t-13-5h-107q-8 0-13 5t-5 13v196h-107q-8 0-13 5t-5 13q0 7 6 13l178 178q6 5 13 5t12-5l179-178q8-9 4-20z m-195 293q-83 0-153-41t-110-111-41-152 41-152 110-111 153-41 152 41 110 111 41 152-41 152-110 111-152 41z m428-304q0-117-57-215t-156-156-215-58-216 58-155 156-58 215 58 215 155 156 216 58 215-58 156-156 57-215z" horiz-adv-x="857.1" />
<glyph glyph-name="left-circled2" unicode="&#xe89e;" d="m643 404v-108q0-7-5-12t-13-5h-196v-108q0-7-5-12t-13-5q-7 0-14 5l-178 178q-5 5-5 13t5 13l179 178q5 5 13 5 7 0 12-5t6-12v-108h196q7 0 13-5t5-12z m89-54q0 83-41 152t-110 111-152 41-153-41-110-111-41-152 41-152 110-111 153-41 152 41 110 111 41 152z m125 0q0-117-57-215t-156-156-215-58-216 58-155 156-58 215 58 215 155 156 216 58 215-58 156-156 57-215z" horiz-adv-x="857.1" />
<glyph glyph-name="right-circled2" unicode="&#xe89f;" d="m643 350q0-8-5-13l-179-178q-5-5-13-5-7 0-12 5t-5 12v108h-197q-7 0-12 5t-6 12v108q0 7 6 12t12 5h197v108q0 7 5 12t12 5q7 0 14-5l178-178q5-5 5-13z m89 0q0 83-41 152t-110 111-152 41-153-41-110-111-41-152 41-152 110-111 153-41 152 41 110 111 41 152z m125 0q0-117-57-215t-156-156-215-58-216 58-155 156-58 215 58 215 155 156 216 58 215-58 156-156 57-215z" horiz-adv-x="857.1" />
<glyph glyph-name="down-dir" unicode="&#xe8a0;" d="m571 457q0-14-10-25l-250-250q-11-11-25-11t-25 11l-250 250q-11 11-11 25t11 25 25 11h500q14 0 25-11t10-25z" horiz-adv-x="571.4" />
<glyph glyph-name="up-dir" unicode="&#xe8a1;" d="m571 171q0-14-10-25t-25-10h-500q-15 0-25 10t-11 25 11 26l250 250q10 10 25 10t25-10l250-250q10-11 10-26z" horiz-adv-x="571.4" />
<glyph glyph-name="left-dir" unicode="&#xe8a2;" d="m357 600v-500q0-14-10-25t-26-11-25 11l-250 250q-10 11-10 25t10 25l250 250q11 11 25 11t26-11 10-25z" horiz-adv-x="357.1" />
<glyph glyph-name="right-dir" unicode="&#xe8a3;" d="m321 350q0-14-10-25l-250-250q-11-11-25-11t-25 11-11 25v500q0 15 11 25t25 11 25-11l250-250q10-10 10-25z" horiz-adv-x="357.1" />
<glyph glyph-name="down-open" unicode="&#xe8a4;" d="m939 399l-414-413q-10-11-25-11t-25 11l-414 413q-11 11-11 26t11 25l92 92q11 11 26 11t25-11l296-296 296 296q11 11 25 11t26-11l92-92q11-11 11-25t-11-26z" horiz-adv-x="1000" />
<glyph glyph-name="left-open" unicode="&#xe8a5;" d="m653 682l-296-296 296-297q11-10 11-25t-11-25l-92-93q-11-10-25-10t-25 10l-414 415q-11 10-11 25t11 25l414 414q10 10 25 10t25-10l92-93q11-10 11-25t-11-25z" horiz-adv-x="714.3" />
<glyph glyph-name="right-open" unicode="&#xe8a6;" d="m618 361l-414-415q-11-10-25-10t-26 10l-92 93q-11 11-11 25t11 25l296 297-296 296q-11 11-11 25t11 25l92 93q11 10 26 10t25-10l414-414q10-11 10-25t-10-25z" horiz-adv-x="714.3" />
<glyph glyph-name="up-open" unicode="&#xe8a7;" d="m939 107l-92-92q-11-10-26-10t-25 10l-296 297-296-297q-11-10-25-10t-26 10l-92 92q-11 11-11 26t11 25l414 414q11 10 25 10t25-10l414-414q11-11 11-25t-11-26z" horiz-adv-x="1000" />
<glyph glyph-name="angle-left" unicode="&#xe8a8;" d="m350 546q0-7-6-12l-219-220 219-219q6-6 6-13t-6-13l-28-28q-5-5-12-5t-13 5l-260 260q-6 6-6 13t6 13l260 260q5 6 13 6t12-6l28-28q6-5 6-13z" horiz-adv-x="357.1" />
<glyph glyph-name="angle-right" unicode="&#xe8a9;" d="m332 314q0-7-6-13l-260-260q-5-5-12-5t-13 5l-28 28q-6 6-6 13t6 13l219 219-219 220q-6 5-6 12t6 13l28 28q5 6 13 6t12-6l260-260q6-5 6-13z" horiz-adv-x="357.1" />
<glyph glyph-name="angle-up" unicode="&#xe8aa;" d="m600 189q0-7-6-13l-28-27q-5-6-12-6t-13 6l-220 219-219-219q-5-6-13-6t-13 6l-27 27q-6 6-6 13t6 13l260 260q5 6 12 6t13-6l260-260q6-5 6-13z" horiz-adv-x="642.9" />
<glyph glyph-name="angle-down" unicode="&#xe8ab;" d="m600 439q0-7-6-13l-260-260q-5-5-13-5t-12 5l-260 260q-6 6-6 13t6 13l27 28q6 6 13 6t13-6l219-219 220 219q5 6 13 6t12-6l28-28q6-5 6-13z" horiz-adv-x="642.9" />
<glyph glyph-name="angle-circled-left" unicode="&#xe8ac;" d="m507 72l57 56q11 11 11 26t-11 25l-171 171 171 171q11 11 11 25t-11 25l-57 57q-10 11-25 11t-25-11l-253-253q-11-11-11-25t11-25l253-254q11-10 25-10t25 10z m350 278q0-117-57-215t-156-156-215-58-216 58-155 156-58 215 58 215 155 156 216 58 215-58 156-156 57-215z" horiz-adv-x="857.1" />
<glyph glyph-name="angle-circled-right" unicode="&#xe8ad;" d="m400 72l253 253q11 11 11 25t-11 25l-253 253q-10 11-25 11t-25-11l-57-56q-11-11-11-26t11-25l171-171-171-171q-11-11-11-25t11-26l57-57q11-10 25-10t25 10z m457 278q0-117-57-215t-156-156-215-58-216 58-155 156-58 215 58 215 155 156 216 58 215-58 156-156 57-215z" horiz-adv-x="857.1" />
<glyph glyph-name="angle-circled-up" unicode="&#xe8ae;" d="m650 214l57 57q11 11 11 25t-11 26l-253 253q-11 10-25 10t-26-10l-253-254q-10-10-10-25t10-25l57-57q11-10 25-10t25 10l172 172 171-172q11-10 25-10t25 10z m207 136q0-117-57-215t-156-156-215-58-216 58-155 156-58 215 58 215 155 156 216 58 215-58 156-156 57-215z" horiz-adv-x="857.1" />
<glyph glyph-name="angle-circled-down" unicode="&#xe8af;" d="m454 125l253 253q11 11 11 26t-11 25l-57 57q-10 10-25 10t-25-10l-171-172-172 172q-10 10-25 10t-25-10l-57-57q-10-11-10-25t10-26l253-253q11-10 26-10t25 10z m403 225q0-117-57-215t-156-156-215-58-216 58-155 156-58 215 58 215 155 156 216 58 215-58 156-156 57-215z" horiz-adv-x="857.1" />
<glyph glyph-name="angle-double-left" unicode="&#xe8b0;" d="m350 82q0-7-6-13l-28-28q-5-5-12-5t-13 5l-260 260q-6 6-6 13t6 13l260 260q5 6 13 6t12-6l28-28q6-5 6-13t-6-12l-219-220 219-219q6-6 6-13z m214 0q0-7-5-13l-28-28q-6-5-13-5t-13 5l-260 260q-6 6-6 13t6 13l260 260q6 6 13 6t13-6l28-28q5-5 5-13t-5-12l-220-220 220-219q5-6 5-13z" horiz-adv-x="571.4" />
<glyph glyph-name="angle-double-right" unicode="&#xe8b1;" d="m332 314q0-7-6-13l-260-260q-5-5-12-5t-13 5l-28 28q-6 6-6 13t6 13l219 219-219 220q-6 5-6 12t6 13l28 28q5 6 13 6t12-6l260-260q6-5 6-13z m214 0q0-7-5-13l-260-260q-6-5-13-5t-13 5l-28 28q-5 6-5 13t5 13l219 219-219 220q-5 5-5 12t5 13l28 28q6 6 13 6t13-6l260-260q5-5 5-13z" horiz-adv-x="571.4" />
<glyph glyph-name="angle-double-up" unicode="&#xe8b2;" d="m600 118q0-7-6-13l-28-28q-5-5-12-5t-13 5l-220 219-219-219q-5-5-13-5t-13 5l-27 28q-6 6-6 13t6 13l260 260q5 5 12 5t13-5l260-260q6-6 6-13z m0 214q0-7-6-13l-28-28q-5-5-12-5t-13 5l-220 220-219-220q-5-5-13-5t-13 5l-27 28q-6 6-6 13t6 13l260 260q5 6 12 6t13-6l260-260q6-6 6-13z" horiz-adv-x="642.9" />
<glyph glyph-name="angle-double-down" unicode="&#xe8b3;" d="m600 368q0-7-6-13l-260-260q-5-6-13-6t-12 6l-260 260q-6 6-6 13t6 13l27 28q6 5 13 5t13-5l219-220 220 220q5 5 13 5t12-5l28-28q6-6 6-13z m0 214q0-7-6-13l-260-260q-5-5-13-5t-12 5l-260 260q-6 6-6 13t6 13l27 28q6 5 13 5t13-5l219-220 220 220q5 5 13 5t12-5l28-28q6-6 6-13z" horiz-adv-x="642.9" />
<glyph glyph-name="down" unicode="&#xe8b4;" d="m427 125q4-10-3-19l-195-215q-6-5-13-5-8 0-13 5l-198 215q-8 9-3 19 5 11 16 11h125v696q0 8 5 13t13 5h107q8 0 13-5t5-13v-696h125q11 0 16-11z" horiz-adv-x="428.6" />
<glyph glyph-name="left" unicode="&#xe8b5;" d="m1000 404v-108q0-7-5-12t-13-5h-696v-125q0-12-11-17t-19 3l-215 196q-5 5-5 12 0 8 5 14l215 197q9 8 19 4 11-5 11-17v-125h696q8 0 13-5t5-12z" horiz-adv-x="1000" />
<glyph glyph-name="right" unicode="&#xe8b6;" d="m964 352q0-8-5-14l-215-197q-9-8-19-4-11 5-11 17v125h-696q-8 0-13 5t-5 12v108q0 7 5 12t13 5h696v125q0 12 11 17t19-3l215-196q5-5 5-12z" horiz-adv-x="1000" />
<glyph glyph-name="up" unicode="&#xe8b7;" d="m427 575q-5-11-16-11h-125v-696q0-8-5-13t-13-5h-107q-8 0-13 5t-5 13v696h-125q-12 0-16 11t3 19l195 215q5 5 13 5 7 0 13-5l198-215q7-9 3-19z" horiz-adv-x="428.6" />
<glyph glyph-name="down-big" unicode="&#xe8b8;" d="m899 386q0-30-21-50l-363-364q-22-21-51-21-29 0-50 21l-363 364q-21 20-21 50 0 29 21 51l41 41q22 21 51 21 29 0 50-21l164-164v393q0 29 21 50t51 22h71q29 0 50-22t21-50v-393l164 164q21 21 51 21 29 0 50-21l42-42q21-21 21-50z" horiz-adv-x="928.6" />
<glyph glyph-name="left-big" unicode="&#xe8b9;" d="m857 350v-71q0-30-18-51t-47-21h-393l164-164q21-20 21-50t-21-50l-42-43q-21-20-51-20-29 0-50 20l-364 364q-20 21-20 50 0 29 20 51l364 363q21 21 50 21 29 0 51-21l42-42q21-21 21-50t-21-51l-164-164h393q29 0 47-20t18-51z" horiz-adv-x="857.1" />
<glyph glyph-name="right-big" unicode="&#xe8ba;" d="m821 314q0-30-20-50l-363-364q-22-20-51-20-29 0-50 20l-42 42q-22 21-22 51t22 51l163 163h-393q-29 0-47 21t-18 51v71q0 30 18 51t47 20h393l-163 164q-22 21-22 51t22 50l42 42q21 21 50 21 29 0 51-21l363-363q20-20 20-51z" horiz-adv-x="857.1" />
<glyph glyph-name="up-big" unicode="&#xe8bb;" d="m899 308q0-28-21-50l-42-42q-21-21-50-21-30 0-51 21l-164 164v-393q0-29-20-47t-51-19h-71q-30 0-51 19t-21 47v393l-164-164q-20-21-50-21t-50 21l-42 42q-21 21-21 50 0 30 21 51l363 363q20 21 50 21 30 0 51-21l363-363q21-22 21-51z" horiz-adv-x="928.6" />
<glyph glyph-name="right-hand" unicode="&#xe8bc;" d="m143 100q0 15-11 25t-25 11-25-11-11-25 11-25 25-11 25 11 11 25z m786 321q0 29-22 50t-50 22h-321q0 11 8 27t19 31 18 38 8 47q0 37-25 54t-64 17q-13 0-50-77-14-25-21-37-22-35-62-81-40-45-57-59-38-32-78-32h-18v-357h18q40 0 93-18t108-35 100-18q106 0 106 93 0 14-3 31 17 9 27 30t9 41-10 38q30 28 30 66 0 14-6 31t-14 27h185q29 0 50 21t22 50z m71 1q0-59-42-101t-101-42h-94q-2-35-21-67 2-12 2-24 0-56-34-99 1-78-47-123t-127-45q-74 0-179 39-92 33-125 33h-161q-29 0-50 21t-21 50v357q0 30 21 51t50 21h161q6 0 12 2t13 8 13 10 13 13 12 12 10 12 8 9q36 42 56 72 7 12 18 35t21 40 23 35 30 28 39 10q70 0 115-38t46-105q0-38-13-72h209q58 0 101-42t42-100z" horiz-adv-x="1000" />
<glyph glyph-name="left-hand" unicode="&#xe8bd;" d="m768 64h18v357h-18q-20 0-38 7t-35 21-28 25-27 31q-1 1-2 2t-2 3-3 2q-40 46-62 81-8 13-21 38-1 2-6 13t-11 20-11 20-12 17-10 6q-40 0-64-17t-25-54q0-24 8-47t19-38 18-31 8-27h-321q-28 0-50-22t-22-50q0-29 22-50t50-21h185q-9-9-14-26t-6-31q0-39 30-67-10-18-10-38t9-41 27-30q-2-13-2-31 0-47 27-70t75-23q47 0 102 18t109 35 93 18z m161 36q0 15-11 25t-25 11-25-11-11-25 11-25 25-11 25 11 11 25z m71 321v-357q0-29-21-50t-50-21h-161q-33 0-125-33-106-39-176-39-80 0-129 44t-48 121l0 3q-34 42-34 99 0 12 2 24-19 32-21 67h-94q-59 0-101 42t-42 101q0 57 42 100t101 42h209q-13 34-13 72 0 68 46 105t115 37q21 0 39-9t30-28 23-35 21-40 18-35q20-30 56-72 1-1 8-9t10-12 12-12 13-13 13-10 13-8 12-2h161q29 0 50-21t21-51z" horiz-adv-x="1000" />
<glyph glyph-name="up-hand" unicode="&#xe8be;" d="m714-43q0 15-10 25t-25 11-26-11-10-25 10-25 26-11 25 11 10 25z m72 426q0 106-93 106-15 0-32-3-9 17-29 27t-41 9-39-10q-27 30-66 30-14 0-31-6t-26-14v185q0 29-22 50t-50 22q-28 0-50-22t-21-50v-321q-11 0-27 8t-31 19-38 18-47 8q-37 0-55-25t-17-64q0-13 78-50 25-14 36-21 36-22 81-62 45-40 59-57 32-38 32-78v-18h357v18q0 40 18 93t36 108 18 100z m71 3q0-74-38-179-33-92-33-125v-161q0-29-21-50t-51-21h-357q-29 0-50 21t-21 50v161q0 6-3 12t-8 13-10 13-12 13-12 12-12 10-10 8q-41 36-72 56-11 7-34 18t-40 21-36 23-27 30-10 39q0 70 37 115t106 46q38 0 71-13v209q0 58 43 101t100 42q58 0 101-42t42-101v-94q35-2 66-21 12 2 24 2 57 0 100-34 77 1 122-47t45-127z" horiz-adv-x="857.1" />
<glyph glyph-name="down-hand" unicode="&#xe8bf;" d="m786 314q0 47-18 102t-36 109-18 93v18h-357v-18q0-20-7-38t-20-35-26-28-30-27q-5-4-8-7-45-40-81-62-12-8-38-21-1-1-12-6t-20-11-20-11-17-12-7-10q0-40 17-65t55-24q24 0 47 8t38 18 31 19 27 8v-321q0-28 21-50t50-22q29 0 50 22t22 50v184q25-19 57-19 39 0 66 30 18-11 39-11t41 10 29 27q14-2 32-2 47 0 70 27t23 75z m-72 429q0 14-10 25t-25 11-26-11-10-25 10-25 26-11 25 11 10 25z m143-427q0-79-43-128t-121-48l-3 0q-43-34-100-34-12 0-24 2-30-17-66-21v-94q0-59-42-101t-101-42q-58 0-100 42t-43 101v208q-30-12-71-12-68 0-105 46t-38 115q0 21 10 39t27 30 36 23 40 21 34 18q31 20 72 56 2 1 10 8t12 10 12 12 12 13 10 13 8 13 3 12v160q0 30 21 51t50 21h357q30 0 51-21t21-51v-160q0-33 33-125 38-106 38-177z" horiz-adv-x="857.1" />
<glyph glyph-name="left-circled" unicode="&#xe8c0;" d="m714 314v72q0 14-10 25t-25 10h-281l106 106q11 11 11 25t-11 25l-51 51q-10 10-25 10t-25-10l-202-202-51-51q-10-10-10-25t10-25l51-51 202-202q10-10 25-10t25 10l51 51q10 10 10 25t-10 25l-106 106h281q14 0 25 10t10 25z m143 36q0-117-57-215t-156-156-215-58-216 58-155 156-58 215 58 215 155 156 216 58 215-58 156-156 57-215z" horiz-adv-x="857.1" />
<glyph glyph-name="right-circled" unicode="&#xe8c1;" d="m717 350q0 15-10 25l-51 51-202 202q-10 10-25 10t-25-10l-51-51q-10-10-10-25t10-25l106-106h-280q-15 0-26-10t-10-25v-72q0-14 10-25t26-10h280l-106-106q-10-10-10-25t10-25l51-51q10-10 25-10t25 10l202 202 51 51q10 10 10 25z m140 0q0-117-57-215t-156-156-215-58-216 58-155 156-58 215 58 215 155 156 216 58 215-58 156-156 57-215z" horiz-adv-x="857.1" />
<glyph glyph-name="up-circled" unicode="&#xe8c2;" d="m717 351q0 15-11 25l-202 202-50 50q-10 11-25 11t-26-11l-50-50-202-202q-10-10-10-25t10-26l50-50q11-10 26-10t25 10l105 105v-280q0-14 11-25t25-11h71q15 0 25 11t11 25v280l105-105q11-11 26-11t25 11l50 50q11 11 11 26z m140-1q0-117-57-215t-156-156-215-58-216 58-155 156-58 215 58 215 155 156 216 58 215-58 156-156 57-215z" horiz-adv-x="857.1" />
<glyph glyph-name="down-circled" unicode="&#xe8c3;" d="m717 349q0 16-11 26l-50 50q-10 10-25 10t-26-10l-105-105v280q0 15-11 25t-25 11h-71q-15 0-25-11t-11-25v-280l-105 105q-11 11-25 11t-26-11l-50-50q-10-10-10-26t10-25l202-202 50-50q11-10 26-10t25 10l50 50 202 202q11 10 11 25z m140 1q0-117-57-215t-156-156-215-58-216 58-155 156-58 215 58 215 155 156 216 58 215-58 156-156 57-215z" horiz-adv-x="857.1" />
<glyph glyph-name="cw" unicode="&#xe8c4;" d="m857 707v-250q0-14-10-25t-26-11h-250q-23 0-32 23-10 22 7 38l77 77q-82 77-194 77-58 0-111-23t-91-61-62-91-22-111 22-111 62-91 91-61 111-23q66 0 125 29t100 82q4 6 13 7 8 0 14-5l76-77q5-4 6-11t-5-13q-60-74-147-114t-182-41q-87 0-167 34t-136 92-92 137-34 166 34 166 92 137 136 92 167 34q82 0 158-31t137-88l72 72q16 18 39 8 22-9 22-33z" horiz-adv-x="857.1" />
<glyph glyph-name="ccw" unicode="&#xe8c5;" d="m857 350q0-87-34-166t-91-137-137-92-166-34q-96 0-183 41t-147 114q-4 6-4 13t5 11l76 77q6 5 14 5 9-1 13-7 41-53 100-82t126-29q58 0 110 23t92 61 61 91 22 111-22 111-61 91-92 61-110 23q-55 0-105-20t-90-57l77-77q17-16 8-38-10-23-33-23h-250q-15 0-25 11t-11 25v250q0 24 22 33 22 10 39-8l72-72q60 57 137 88t159 31q87 0 166-34t137-92 91-137 34-166z" horiz-adv-x="857.1" />
<glyph glyph-name="arrows-cw" unicode="&#xe8c6;" d="m843 261q0-3 0-4-36-150-150-243t-267-93q-81 0-157 31t-136 88l-72-72q-11-11-25-11t-25 11-11 25v250q0 14 11 25t25 11h250q14 0 25-11t10-25-10-25l-77-77q40-37 90-57t105-20q74 0 139 37t104 99q6 10 29 66 5 13 17 13h107q8 0 13-6t5-12z m14 446v-250q0-14-10-25t-26-11h-250q-14 0-25 11t-10 25 10 25l77 77q-82 77-194 77-75 0-140-37t-104-99q-6-10-29-66-5-13-17-13h-111q-7 0-13 6t-5 12v4q36 150 151 243t268 93q81 0 158-31t137-88l72 72q11 11 25 11t26-11 10-25z" horiz-adv-x="857.1" />
<glyph glyph-name="level-up" unicode="&#xe8c7;" d="m568 514q-10-21-32-21h-107v-482q0-8-5-13t-13-5h-393q-12 0-16 10-5 11 2 19l89 108q5 6 14 6h179v357h-107q-23 0-33 21-9 20 5 37l179 215q10 12 27 12t28-12l178-215q15-17 5-37z" horiz-adv-x="571.4" />
<glyph glyph-name="level-down" unicode="&#xe8c8;" d="m18 707h393q7 0 12-5t6-13v-482h107q22 0 32-20t-5-39l-178-214q-11-13-28-13t-27 13l-179 214q-14 17-5 39 10 20 33 20h107v357h-179q-8 0-14 6l-89 108q-7 7-2 19 5 10 16 10z" horiz-adv-x="571.4" />
<glyph glyph-name="shuffle" unicode="&#xe8c9;" d="m372 582q-34-52-77-153-12 25-20 41t-23 35-28 32-36 19-45 8h-125q-8 0-13 5t-5 13v107q0 8 5 13t13 5h125q139 0 229-125z m628-446q0-8-5-13l-179-179q-5-5-12-5-8 0-13 6t-5 12v107q-18 0-48 0t-45-1-41 1-39 3-36 6-35 10-32 16-33 22-31 30-31 39q33 52 76 152 12-25 20-40t23-36 28-31 35-20 46-8h143v107q0 8 5 13t13 5q6 0 13-5l178-178q5-5 5-13z m0 500q0-8-5-13l-179-179q-5-5-12-5-8 0-13 6t-5 12v107h-143q-27 0-49-8t-38-25-29-35-25-43q-18-34-43-95-16-37-28-62t-30-59-36-55-41-47-50-38-60-23-71-10h-125q-8 0-13 5t-5 13v107q0 8 5 13t13 5h125q27 0 48 9t39 25 28 34 26 43q17 35 43 96 16 36 28 62t30 58 36 56 41 46 50 38 59 24 72 9h143v107q0 8 5 13t13 5q6 0 13-5l178-178q5-5 5-13z" horiz-adv-x="1000" />
<glyph glyph-name="exchange" unicode="&#xe8ca;" d="m1000 189v-107q0-7-5-12t-13-6h-768v-107q0-7-5-12t-13-6q-6 0-13 6l-178 178q-5 5-5 13 0 8 5 13l179 178q5 5 12 5 8 0 13-5t5-13v-107h768q7 0 13-5t5-13z m0 304q0-8-5-13l-179-179q-5-5-12-5-8 0-13 6t-5 12v107h-768q-7 0-13 6t-5 12v107q0 8 5 13t13 5h768v107q0 8 5 13t13 5q6 0 13-5l178-178q5-5 5-13z" horiz-adv-x="1000" />
<glyph glyph-name="history" unicode="&#xe8cb;" d="m857 350q0-87-34-166t-91-137-137-92-166-34q-96 0-183 41t-147 114q-4 6-4 13t5 11l76 77q6 5 14 5 9-1 13-7 41-53 100-82t126-29q58 0 110 23t92 61 61 91 22 111-22 111-61 91-92 61-110 23q-55 0-105-20t-90-57l77-77q17-16 8-38-10-23-33-23h-250q-15 0-25 11t-11 25v250q0 24 22 33 22 10 39-8l72-72q60 57 137 88t159 31q87 0 166-34t137-92 91-137 34-166z m-357 161v-250q0-8-5-13t-13-5h-178q-8 0-13 5t-5 13v35q0 8 5 13t13 5h125v197q0 8 5 13t12 5h36q8 0 13-5t5-13z" horiz-adv-x="857.1" />
<glyph glyph-name="expand" unicode="&#xe8cc;" d="m639 473q10-19-3-36l-178-250q-11-16-29-16t-29 16l-179 250q-13 17-3 36 10 20 32 20h357q22 0 32-20z m75-391v536q0 7-5 12t-13 6h-535q-7 0-13-6t-5-12v-536q0-7 5-12t13-6h535q8 0 13 6t5 12z m143 536v-536q0-66-47-113t-114-48h-535q-67 0-114 48t-47 113v536q0 66 47 113t114 48h535q67 0 114-48t47-113z" horiz-adv-x="857.1" />
<glyph glyph-name="collapse" unicode="&#xe8cd;" d="m639 227q-10-20-32-20h-357q-22 0-32 20-10 19 3 37l179 250q10 15 29 15t29-15l178-250q13-18 3-37z m75-145v536q0 7-5 12t-13 6h-535q-7 0-13-6t-5-12v-536q0-7 5-12t13-6h535q8 0 13 6t5 12z m143 536v-536q0-66-47-113t-114-48h-535q-67 0-114 48t-47 113v536q0 66 47 113t114 48h535q67 0 114-48t47-113z" horiz-adv-x="857.1" />
<glyph glyph-name="expand-right" unicode="&#xe8ce;" d="m607 350q0-18-15-29l-250-179q-17-12-37-2-19 9-19 31v358q0 22 19 31 20 10 37-2l250-179q15-11 15-29z m107-268v536q0 8-5 13t-13 5h-535q-8 0-13-5t-5-13v-536q0-8 5-13t13-5h535q8 0 13 5t5 13z m143 536v-536q0-66-47-113t-114-48h-535q-67 0-114 48t-47 113v536q0 66 47 113t114 48h535q67 0 114-48t47-113z" horiz-adv-x="857.1" />
<glyph glyph-name="collapse-left" unicode="&#xe8cf;" d="m571 529v-358q0-14-10-25t-25-10q-11 0-21 6l-250 179q-15 11-15 29t15 29l250 179q10 6 21 6 14 0 25-10t10-25z m143-447v536q0 7-5 12t-13 6h-535q-7 0-13-6t-5-12v-536q0-7 5-12t13-6h535q8 0 13 6t5 12z m143 536v-536q0-66-47-113t-114-48h-535q-67 0-114 48t-47 113v536q0 66 47 113t114 48h535q67 0 114-48t47-113z" horiz-adv-x="857.1" />
<glyph glyph-name="play" unicode="&#xe8d0;" d="m772 333l-741-412q-13-7-22-2t-9 20v822q0 14 9 20t22-2l741-412q13-7 13-17t-13-17z" horiz-adv-x="785.7" />
<glyph glyph-name="play-circled" unicode="&#xe8d1;" d="m429 779q116 0 215-58t156-156 57-215-57-215-156-156-215-58-216 58-155 156-58 215 58 215 155 156 216 58z m214-460q18 10 18 31t-18 31l-304 178q-17 11-35 1-18-11-18-31v-358q0-20 18-31 9-4 17-4 10 0 18 5z" horiz-adv-x="857.1" />
<glyph glyph-name="play-circled2" unicode="&#xe8d2;" d="m661 350q0-21-18-31l-304-178q-8-5-18-5-8 0-17 4-18 11-18 31v358q0 20 18 31 18 10 35-1l304-178q18-10 18-31z m71 0q0 83-41 152t-110 111-152 41-153-41-110-111-41-152 41-152 110-111 153-41 152 41 110 111 41 152z m125 0q0-117-57-215t-156-156-215-58-216 58-155 156-58 215 58 215 155 156 216 58 215-58 156-156 57-215z" horiz-adv-x="857.1" />
<glyph glyph-name="stop" unicode="&#xe8d3;" d="m857 743v-786q0-14-10-25t-26-11h-785q-15 0-25 11t-11 25v786q0 14 11 25t25 11h785q15 0 26-11t10-25z" horiz-adv-x="857.1" />
<glyph glyph-name="pause" unicode="&#xe8d4;" d="m857 743v-786q0-14-10-25t-26-11h-285q-15 0-25 11t-11 25v786q0 14 11 25t25 11h285q15 0 26-11t10-25z m-500 0v-786q0-14-10-25t-26-11h-285q-15 0-25 11t-11 25v786q0 14 11 25t25 11h285q15 0 26-11t10-25z" horiz-adv-x="857.1" />
<glyph glyph-name="to-end" unicode="&#xe8d5;" d="m25-71q-10-11-18-8t-7 18v822q0 14 7 18t18-8l396-396q5-4 8-11v379q0 14 10 25t25 11h72q14 0 25-11t10-25v-786q0-14-10-25t-25-11h-72q-14 0-25 11t-10 25v379q-3-6-8-11z" horiz-adv-x="571.4" />
<glyph glyph-name="to-end-alt" unicode="&#xe8d6;" d="m25-71q-10-11-18-8t-7 18v822q0 14 7 18t18-8l396-396q5-4 8-11v397q0 14 7 18t18-8l396-396q4-4 7-11v379q0 14 11 25t25 11h71q15 0 25-11t11-25v-786q0-14-11-25t-25-11h-71q-15 0-25 11t-11 25v379q-3-6-7-11l-396-396q-11-11-18-8t-7 18v397q-3-6-8-11z" horiz-adv-x="1000" />
<glyph glyph-name="to-start" unicode="&#xe8d7;" d="m546 771q11 11 18 8t7-18v-822q0-14-7-18t-18 8l-396 396q-5 5-7 11v-379q0-14-11-25t-25-11h-71q-15 0-25 11t-11 25v786q0 14 11 25t25 11h71q15 0 25-11t11-25v-379q2 7 7 11z" horiz-adv-x="571.4" />
<glyph glyph-name="to-start-alt" unicode="&#xe8d8;" d="m975 771q10 11 18 8t7-18v-822q0-14-7-18t-18 8l-396 396q-5 5-8 11v-397q0-14-7-18t-18 8l-396 396q-5 5-7 11v-379q0-14-11-25t-25-11h-71q-15 0-25 11t-11 25v786q0 14 11 25t25 11h71q15 0 25-11t11-25v-379q2 7 7 11l396 396q11 11 18 8t7-18v-396q3 6 8 10z" horiz-adv-x="1000" />
<glyph glyph-name="fast-fw" unicode="&#xe8d9;" d="m25-71q-10-11-18-8t-7 18v822q0 14 7 18t18-8l396-396q5-4 8-11v397q0 14 7 18t18-8l396-396q10-11 10-25t-10-25l-396-396q-11-11-18-8t-7 18v396q-3-5-8-10z" horiz-adv-x="928.6" />
<glyph glyph-name="fast-bw" unicode="&#xe8da;" d="m903 771q11 11 18 8t8-18v-822q0-14-8-18t-18 8l-396 396q-4 5-7 11v-397q0-14-7-18t-18 8l-396 396q-11 11-11 25t11 25l396 396q11 11 18 8t7-18v-396q3 6 7 10z" horiz-adv-x="928.6" />
<glyph glyph-name="eject" unicode="&#xe8db;" d="m8 304l396 396q11 10 25 10t25-10l396-396q11-11 8-18t-18-8h-822q-14 0-17 8t7 18z m814-311h-786q-14 0-25 10t-10 26v142q0 15 10 26t25 10h786q14 0 25-10t11-26v-142q0-15-11-26t-25-10z" horiz-adv-x="858.3" />
<glyph glyph-name="target" unicode="&#xe8dc;" d="m668 279h-61q-14 0-25 10t-11 25v72q0 14 11 25t25 10h61q-18 61-63 106t-105 62v-60q0-15-11-26t-25-10h-71q-15 0-25 10t-11 26v60q-60-17-105-62t-63-106h61q15 0 25-10t11-25v-72q0-14-11-25t-25-11h-61q18-60 63-105t105-62v60q0 15 11 25t25 11h71q15 0 25-11t11-25v-60q60 17 105 62t63 105z m189 107v-72q0-14-10-25t-26-10h-79q-21-90-87-156t-155-86v-80q0-14-11-25t-25-11h-71q-15 0-25 11t-11 25v80q-90 21-155 86t-86 156h-80q-15 0-25 10t-11 25v72q0 14 11 25t25 10h80q20 90 86 156t155 86v80q0 14 11 25t25 11h71q15 0 25-11t11-25v-80q90-21 155-86t87-156h79q15 0 26-10t10-25z" horiz-adv-x="857.1" />
<glyph glyph-name="signal" unicode="&#xe8dd;" d="m143 46v-107q0-8-5-13t-13-5h-107q-8 0-13 5t-5 13v107q0 8 5 13t13 5h107q8 0 13-5t5-13z m214 72v-179q0-8-5-13t-13-5h-107q-8 0-13 5t-5 13v179q0 8 5 13t13 5h107q8 0 13-5t5-13z m214 143v-322q0-8-5-13t-12-5h-108q-7 0-12 5t-5 13v322q0 8 5 13t12 5h108q7 0 12-5t5-13z m215 214v-536q0-8-5-13t-13-5h-107q-8 0-13 5t-5 13v536q0 8 5 13t13 5h107q8 0 13-5t5-13z m214 286v-822q0-8-5-13t-13-5h-107q-8 0-13 5t-5 13v822q0 8 5 13t13 5h107q8 0 13-5t5-13z" horiz-adv-x="1000" />
<glyph glyph-name="wifi" unicode="&#xe8de;" d="m571 0q-11 0-51 41t-41 52q0 18 35 30t57 13 58-13 35-30q0-11-41-52t-52-41z m151 151q-1 0-22 14t-57 28-72 14-71-14-57-28-22-14q-10 0-52 42t-43 52q0 7 6 13 44 43 109 67t130 25 130-25 110-67q5-6 5-13 0-10-42-52t-52-42z m152 152q-6 0-12 5-76 58-141 86t-150 27q-47 0-95-12t-83-29-63-35-44-30-18-12q-9 0-51 42t-42 52q0 7 6 12 73 74 178 115t212 40 212-40 179-115q6-5 6-12 0-10-42-52t-52-42z m152 151q-6 0-13 5-100 88-207 132t-235 45-234-45-207-132q-7-5-13-5-9 0-51 42t-43 52q0 7 6 13 104 104 248 161t294 56 295-56 248-161q5-6 5-13 0-10-42-52t-51-42z" horiz-adv-x="1142.9" />
<glyph glyph-name="award" unicode="&#xe8df;" d="m256 357q-42 91-42 207h-143v-53q0-44 53-91t132-63z m601 154v53h-143q0-116-41-207 79 16 131 63t53 91z m72 71v-71q0-40-24-80t-62-73-97-54-120-25q-23-30-53-53-21-19-29-40t-8-50q0-30 17-51t54-21q42 0 75-25t32-64v-36q0-8-5-13t-13-5h-464q-8 0-13 5t-5 13v36q0 39 33 64t74 25q38 0 55 21t17 51q0 28-8 50t-30 40q-29 23-53 53-63 3-120 25t-96 54-63 73-23 80v71q0 22 16 38t38 16h160v53q0 37 27 63t63 27h321q37 0 63-27t26-63v-53h161q22 0 38-16t16-38z" horiz-adv-x="928.6" />
<glyph glyph-name="desktop" unicode="&#xe8e0;" d="m1000 296v465q0 7-5 12t-13 6h-893q-7 0-12-6t-6-12v-465q0-7 6-12t12-5h893q7 0 13 5t5 12z m71 465v-607q0-37-26-63t-63-27h-303q0-20 9-43t17-40 9-24q0-14-10-25t-25-11h-286q-15 0-25 11t-11 25q0 8 9 25t18 39 9 43h-304q-36 0-63 27t-26 63v607q0 37 26 63t63 26h893q37 0 63-26t26-63z" horiz-adv-x="1071.4" />
<glyph glyph-name="laptop" unicode="&#xe8e1;" d="m232 136q-37 0-63 26t-26 63v393q0 37 26 63t63 26h607q37 0 63-26t27-63v-393q0-37-27-63t-63-26h-607z m-18 482v-393q0-7 6-13t12-5h607q8 0 13 5t5 13v393q0 7-5 12t-13 6h-607q-7 0-12-6t-6-12z m768-518h89v-54q0-22-26-37t-63-16h-893q-36 0-63 16t-26 37v54h982z m-402-54q9 0 9 9t-9 9h-89q-9 0-9-9t9-9h89z" horiz-adv-x="1071.4" />
<glyph glyph-name="tablet" unicode="&#xe8e2;" d="m357 64q0 15-10 25t-26 11-25-11-10-25 10-25 25-10 26 10 10 25z m214 90v535q0 8-5 13t-12 5h-465q-7 0-12-5t-6-13v-535q0-8 6-13t12-5h465q7 0 12 5t5 13z m72 535v-607q0-37-26-63t-63-26h-465q-36 0-63 26t-26 63v607q0 37 26 63t63 27h465q36 0 63-27t26-63z" horiz-adv-x="642.9" />
<glyph glyph-name="mobile" unicode="&#xe8e3;" d="m259 64q0 19-13 32t-32 13-31-13-13-32 13-31 31-13 32 13 13 31z m116 90v392q0 8-5 13t-13 5h-286q-7 0-12-5t-5-13v-392q0-8 5-13t12-5h286q7 0 13 5t5 13z m-107 473q0 9-9 9h-89q-9 0-9-9t9-9h89q9 0 9 9z m161 9v-572q0-29-22-50t-50-21h-286q-29 0-50 21t-21 50v572q0 29 21 50t50 21h286q29 0 50-21t22-50z" horiz-adv-x="428.6" />
<glyph glyph-name="inbox" unicode="&#xe8e4;" d="m571 314h176q0 2-1 5t-2 4l-118 277h-395l-118-277q-1-1-2-4t-1-5h176l53-107h179z m286-16v-269q0-15-10-26t-26-10h-785q-15 0-25 10t-11 26v269q0 34 14 68l133 308q5 14 20 24t29 9h465q14 0 29-9t20-24l133-308q14-34 14-68z" horiz-adv-x="857.1" />
</font>
</defs>
</svg>
